<svg width="256" height="67" viewBox="0 0 256 67" fill="none" xmlns="http://www.w3.org/2000/svg">
<g filter="url(#filter0_i_166_2)">
<path d="M88.4492 34V30.128L88.4172 29.552V23.248C88.4172 21.6053 87.9799 20.3573 87.1052 19.504C86.2305 18.6507 84.9612 18.224 83.2972 18.224C82.0812 18.224 80.9719 18.4373 79.9692 18.864C78.9665 19.2693 78.1025 19.8027 77.3772 20.464L76.8012 19.696C77.5905 18.9493 78.5612 18.3627 79.7132 17.936C80.8652 17.488 82.0705 17.264 83.3292 17.264C85.3132 17.264 86.8279 17.776 87.8732 18.8C88.9399 19.8027 89.4732 21.2853 89.4732 23.248V34H88.4492ZM82.2732 34.096C81.0145 34.096 79.9372 33.904 79.0412 33.52C78.1665 33.136 77.4945 32.592 77.0252 31.888C76.5559 31.1627 76.3212 30.3413 76.3212 29.424C76.3212 28.6133 76.5132 27.8667 76.8972 27.184C77.2812 26.48 77.9105 25.9253 78.7852 25.52C79.6812 25.0933 80.8759 24.88 82.3692 24.88H88.8012V25.744H82.3692C80.5559 25.744 79.2652 26.0853 78.4972 26.768C77.7505 27.4507 77.3772 28.3147 77.3772 29.36C77.3772 30.5333 77.8145 31.472 78.6892 32.176C79.5639 32.8587 80.7799 33.2 82.3372 33.2C83.8732 33.2 85.1425 32.8587 86.1452 32.176C87.1479 31.472 87.9052 30.48 88.4172 29.2L88.7692 29.904C88.3425 31.1627 87.5745 32.176 86.4652 32.944C85.3559 33.712 83.9585 34.096 82.2732 34.096ZM102.629 34.096C101.093 34.096 99.7065 33.744 98.4692 33.04C97.2532 32.3147 96.2825 31.3227 95.5572 30.064C94.8532 28.784 94.5012 27.3227 94.5012 25.68C94.5012 24.016 94.8532 22.5653 95.5572 21.328C96.2825 20.0693 97.2532 19.0773 98.4692 18.352C99.7065 17.6267 101.093 17.264 102.629 17.264C104.123 17.264 105.467 17.616 106.661 18.32C107.856 19.024 108.795 20.0053 109.477 21.264C110.181 22.5227 110.533 23.9947 110.533 25.68C110.533 27.344 110.181 28.816 109.477 30.096C108.795 31.376 107.856 32.368 106.661 33.072C105.467 33.7547 104.123 34.096 102.629 34.096ZM102.661 33.136C104.027 33.136 105.243 32.8267 106.309 32.208C107.376 31.568 108.219 30.6827 108.837 29.552C109.456 28.4213 109.765 27.1307 109.765 25.68C109.765 24.208 109.456 22.9173 108.837 21.808C108.219 20.6773 107.376 19.8027 106.309 19.184C105.243 18.5653 104.027 18.256 102.661 18.256C101.317 18.256 100.112 18.5653 99.0452 19.184C97.9785 19.8027 97.1252 20.6773 96.4852 21.808C95.8665 22.9173 95.5572 24.208 95.5572 25.68C95.5572 27.1307 95.8665 28.4213 96.4852 29.552C97.1252 30.6827 97.9785 31.568 99.0452 32.208C100.112 32.8267 101.317 33.136 102.661 33.136ZM109.797 34V28.176L110.085 25.648L109.765 23.12V10.256H110.821V34H109.797ZM117.92 34V17.392H118.976V34H117.92ZM118.432 13.04C118.155 13.04 117.91 12.9333 117.696 12.72C117.483 12.5067 117.376 12.272 117.376 12.016C117.376 11.7173 117.483 11.472 117.696 11.28C117.91 11.0667 118.155 10.96 118.432 10.96C118.731 10.96 118.976 11.0667 119.168 11.28C119.382 11.472 119.488 11.7067 119.488 11.984C119.488 12.2613 119.382 12.5067 119.168 12.72C118.976 12.9333 118.731 13.04 118.432 13.04ZM136.637 34V30.128L136.605 29.552V23.248C136.605 21.6053 136.167 20.3573 135.293 19.504C134.418 18.6507 133.149 18.224 131.485 18.224C130.269 18.224 129.159 18.4373 128.157 18.864C127.154 19.2693 126.29 19.8027 125.565 20.464L124.989 19.696C125.778 18.9493 126.749 18.3627 127.901 17.936C129.053 17.488 130.258 17.264 131.517 17.264C133.501 17.264 135.015 17.776 136.061 18.8C137.127 19.8027 137.661 21.2853 137.661 23.248V34H136.637ZM130.461 34.096C129.202 34.096 128.125 33.904 127.229 33.52C126.354 33.136 125.682 32.592 125.213 31.888C124.743 31.1627 124.509 30.3413 124.509 29.424C124.509 28.6133 124.701 27.8667 125.085 27.184C125.469 26.48 126.098 25.9253 126.973 25.52C127.869 25.0933 129.063 24.88 130.557 24.88H136.989V25.744H130.557C128.743 25.744 127.453 26.0853 126.685 26.768C125.938 27.4507 125.565 28.3147 125.565 29.36C125.565 30.5333 126.002 31.472 126.877 32.176C127.751 32.8587 128.967 33.2 130.525 33.2C132.061 33.2 133.33 32.8587 134.333 32.176C135.335 31.472 136.093 30.48 136.605 29.2L136.957 29.904C136.53 31.1627 135.762 32.176 134.653 32.944C133.543 33.712 132.146 34.096 130.461 34.096Z" fill="#303030"/>
</g>
<path d="M88.4492 34H87.4492V35H88.4492V34ZM88.4492 30.128H89.4492V30.1002L89.4476 30.0725L88.4492 30.128ZM88.4172 29.552H87.4172V29.5798L87.4187 29.6075L88.4172 29.552ZM87.1052 19.504L86.4069 20.2198L86.4069 20.2198L87.1052 19.504ZM79.9692 18.864L80.344 19.7911L80.3524 19.7877L80.3607 19.7842L79.9692 18.864ZM77.3772 20.464L76.5772 21.064L77.2376 21.9445L78.0509 21.203L77.3772 20.464ZM76.8012 19.696L76.114 18.9695L75.466 19.5825L76.0012 20.296L76.8012 19.696ZM79.7132 17.936L80.0605 18.8737L80.0681 18.8709L80.0756 18.868L79.7132 17.936ZM87.8732 18.8L87.1734 19.5144L87.1808 19.5216L87.1883 19.5286L87.8732 18.8ZM89.4732 34V35H90.4732V34H89.4732ZM79.0412 33.52L78.6392 34.4357L78.6473 34.4391L79.0412 33.52ZM77.0252 31.888L76.1855 32.4313L76.1931 32.4427L77.0252 31.888ZM76.8972 27.184L77.7688 27.6743L77.7751 27.6629L76.8972 27.184ZM78.7852 25.52L79.2057 26.4274L79.2151 26.4229L78.7852 25.52ZM88.8012 24.88H89.8012V23.88H88.8012V24.88ZM88.8012 25.744V26.744H89.8012V25.744H88.8012ZM78.4972 26.768L77.8328 26.0205L77.8224 26.03L78.4972 26.768ZM78.6892 32.176L78.0622 32.955L78.068 32.9597L78.0739 32.9643L78.6892 32.176ZM86.1452 32.176L86.708 33.0026L86.7139 32.9985L86.7198 32.9944L86.1452 32.176ZM88.4172 29.2L89.3116 28.7528L88.3157 26.761L87.4887 28.8286L88.4172 29.2ZM88.7692 29.904L89.7163 30.225L89.8502 29.8299L89.6636 29.4568L88.7692 29.904ZM86.4652 32.944L85.896 32.1218L85.896 32.1218L86.4652 32.944ZM89.4492 34V30.128H87.4492V34H89.4492ZM89.4476 30.0725L89.4156 29.4965L87.4187 29.6075L87.4507 30.1835L89.4476 30.0725ZM89.4172 29.552V23.248H87.4172V29.552H89.4172ZM89.4172 23.248C89.4172 21.4318 88.9304 19.8876 87.8035 18.7882L86.4069 20.2198C87.0293 20.8271 87.4172 21.7789 87.4172 23.248H89.4172ZM87.8035 18.7882C86.6829 17.6949 85.1257 17.224 83.2972 17.224V19.224C84.7967 19.224 85.7782 19.6064 86.4069 20.2198L87.8035 18.7882ZM83.2972 17.224C81.9622 17.224 80.7177 17.4587 79.5776 17.9438L80.3607 19.7842C81.226 19.416 82.2001 19.224 83.2972 19.224V17.224ZM79.5944 17.9369C78.4929 18.3822 77.525 18.976 76.7034 19.725L78.0509 21.203C78.6801 20.6293 79.4402 20.1565 80.344 19.7911L79.5944 17.9369ZM78.1772 19.864L77.6012 19.096L76.0012 20.296L76.5772 21.064L78.1772 19.864ZM77.4884 20.4225C78.1678 19.7798 79.0184 19.2597 80.0605 18.8737L79.3659 16.9983C78.104 17.4656 77.0132 18.1189 76.114 18.9695L77.4884 20.4225ZM80.0756 18.868C81.1099 18.4658 82.1922 18.264 83.3292 18.264V16.264C81.9489 16.264 80.6204 16.5102 79.3507 17.004L80.0756 18.868ZM83.3292 18.264C85.1468 18.264 86.3735 18.7308 87.1734 19.5144L88.573 18.0856C87.2822 16.8212 85.4795 16.264 83.3292 16.264V18.264ZM87.1883 19.5286C87.9922 20.2843 88.4732 21.4634 88.4732 23.248H90.4732C90.4732 21.1073 89.8875 19.321 88.5581 18.0714L87.1883 19.5286ZM88.4732 23.248V34H90.4732V23.248H88.4732ZM89.4732 33H88.4492V35H89.4732V33ZM82.2732 33.096C81.1122 33.096 80.1761 32.9184 79.4351 32.6009L78.6473 34.4391C79.6983 34.8896 80.9168 35.096 82.2732 35.096V33.096ZM79.4432 32.6044C78.7202 32.2869 78.2074 31.8585 77.8572 31.3333L76.1931 32.4427C76.7817 33.3255 77.6129 33.9851 78.6392 34.4356L79.4432 32.6044ZM77.8648 31.3447C77.5067 30.7914 77.3212 30.1611 77.3212 29.424H75.3212C75.3212 30.5216 75.605 31.5339 76.1856 32.4313L77.8648 31.3447ZM77.3212 29.424C77.3212 28.7788 77.472 28.2019 77.7688 27.6743L76.0256 26.6937C75.5544 27.5315 75.3212 28.4479 75.3212 29.424H77.3212ZM77.7751 27.6629C78.037 27.1826 78.4851 26.7612 79.2057 26.4273L78.3647 24.6127C77.336 25.0894 76.5253 25.7774 76.0193 26.7051L77.7751 27.6629ZM79.2151 26.4229C79.9263 26.0842 80.9562 25.88 82.3692 25.88V23.88C80.7955 23.88 79.436 24.1025 78.3553 24.6171L79.2151 26.4229ZM82.3692 25.88H88.8012V23.88H82.3692V25.88ZM87.8012 24.88V25.744H89.8012V24.88H87.8012ZM88.8012 24.744H82.3692V26.744H88.8012V24.744ZM82.3692 24.744C80.4807 24.744 78.88 25.0898 77.8328 26.0206L79.1616 27.5154C79.6504 27.0809 80.631 26.744 82.3692 26.744V24.744ZM77.8224 26.03C76.8609 26.9091 76.3772 28.0445 76.3772 29.36H78.3772C78.3772 28.5848 78.6402 27.9922 79.172 27.506L77.8224 26.03ZM76.3772 29.36C76.3772 30.8203 76.9397 32.0515 78.0622 32.955L79.3162 31.397C78.6894 30.8925 78.3772 30.2463 78.3772 29.36H76.3772ZM78.0739 32.9643C79.1831 33.83 80.645 34.2 82.3372 34.2V32.2C80.9147 32.2 79.9446 31.8873 79.3045 31.3877L78.0739 32.9643ZM82.3372 34.2C84.0205 34.2 85.5001 33.825 86.708 33.0026L85.5824 31.3494C84.7849 31.8923 83.7259 32.2 82.3372 32.2V34.2ZM86.7198 32.9944C87.9007 32.1653 88.7709 31.0083 89.3457 29.5714L87.4887 28.8286C87.0395 29.9517 86.395 30.7787 85.5706 31.3576L86.7198 32.9944ZM87.5228 29.6472L87.8748 30.3512L89.6636 29.4568L89.3116 28.7528L87.5228 29.6472ZM87.8221 29.583C87.4655 30.635 86.8317 31.474 85.896 32.1218L87.0344 33.7662C88.3173 32.878 89.2196 31.6903 89.7163 30.225L87.8221 29.583ZM85.896 32.1218C84.9914 32.7481 83.8061 33.096 82.2732 33.096V35.096C84.111 35.096 85.7203 34.6759 87.0344 33.7662L85.896 32.1218ZM98.4692 33.04L97.9569 33.8988L97.9657 33.9041L97.9747 33.9092L98.4692 33.04ZM95.5572 30.064L94.681 30.5459L94.6858 30.5547L94.6908 30.5633L95.5572 30.064ZM95.5572 21.328L94.6907 20.8287L94.688 20.8335L95.5572 21.328ZM98.4692 18.352L97.9635 17.4893L97.9569 17.4932L98.4692 18.352ZM106.661 18.32L106.153 19.1815L106.153 19.1815L106.661 18.32ZM109.477 21.264L108.598 21.7408L108.604 21.7522L109.477 21.264ZM109.477 30.096L108.601 29.614L108.595 29.6254L109.477 30.096ZM106.661 33.072L107.157 33.9403L107.169 33.9335L106.661 33.072ZM106.309 32.208L106.811 33.073L106.817 33.0693L106.824 33.0655L106.309 32.208ZM108.837 29.552L107.96 29.072L107.96 29.072L108.837 29.552ZM108.837 21.808L107.96 22.288L107.964 22.2951L108.837 21.808ZM106.309 19.184L106.811 18.319L106.811 18.319L106.309 19.184ZM99.0452 19.184L98.5435 18.319L98.5435 18.319L99.0452 19.184ZM96.4852 21.808L95.6149 21.3154L95.6118 21.3209L96.4852 21.808ZM96.4852 29.552L95.6079 30.032L95.6114 30.0383L95.6149 30.0446L96.4852 29.552ZM99.0452 32.208L98.5307 33.0655L98.5371 33.0693L98.5435 33.073L99.0452 32.208ZM109.797 34H108.797V35H109.797V34ZM109.797 28.176L108.804 28.0628L108.797 28.1192V28.176H109.797ZM110.085 25.648L111.079 25.7612L111.092 25.6417L111.077 25.5224L110.085 25.648ZM109.765 23.12H108.765V23.183L108.773 23.2456L109.765 23.12ZM109.765 10.256V9.256H108.765V10.256H109.765ZM110.821 10.256H111.821V9.256H110.821V10.256ZM110.821 34V35H111.821V34H110.821ZM102.629 33.096C101.252 33.096 100.039 32.7824 98.9637 32.1708L97.9747 33.9092C99.3745 34.7056 100.934 35.096 102.629 35.096V33.096ZM98.9815 32.1812C97.9162 31.5458 97.0659 30.6792 96.4236 29.5647L94.6908 30.5633C95.4991 31.9661 96.5901 33.0835 97.9569 33.8988L98.9815 32.1812ZM96.4334 29.5821C95.8203 28.4673 95.5012 27.1755 95.5012 25.68H93.5012C93.5012 27.4698 93.8861 29.1007 94.681 30.5459L96.4334 29.5821ZM95.5012 25.68C95.5012 24.1599 95.8216 22.8854 96.4264 21.8225L94.688 20.8335C93.8848 22.2452 93.5012 23.8721 93.5012 25.68H95.5012ZM96.4236 21.8273C97.0659 20.7128 97.9162 19.8462 98.9815 19.2108L97.9569 17.4932C96.5901 18.3085 95.4991 19.4259 94.6908 20.8287L96.4236 21.8273ZM98.9749 19.2147C100.048 18.5857 101.258 18.264 102.629 18.264V16.264C100.928 16.264 99.3651 16.6677 97.9635 17.4893L98.9749 19.2147ZM102.629 18.264C103.958 18.264 105.124 18.5751 106.153 19.1815L107.169 17.4585C105.809 16.6569 104.287 16.264 102.629 16.264V18.264ZM106.153 19.1815C107.186 19.7903 107.999 20.6362 108.598 21.7408L110.356 20.7872C109.59 19.3744 108.525 18.2577 107.169 17.4585L106.153 19.1815ZM108.604 21.7522C109.212 22.8382 109.533 24.1366 109.533 25.68H111.533C111.533 23.8528 111.15 22.2071 110.35 20.7758L108.604 21.7522ZM109.533 25.68C109.533 27.1992 109.213 28.5012 108.601 29.6141L110.353 30.5779C111.149 29.1308 111.533 27.4888 111.533 25.68H109.533ZM108.595 29.6254C107.995 30.751 107.182 31.6043 106.153 32.2105L107.169 33.9335C108.529 33.1317 109.595 32.001 110.36 30.5666L108.595 29.6254ZM106.165 32.2038C105.134 32.7928 103.964 33.096 102.629 33.096V35.096C104.281 35.096 105.799 34.7165 107.157 33.9402L106.165 32.2038ZM102.661 34.136C104.183 34.136 105.576 33.7893 106.811 33.073L105.807 31.343C104.909 31.864 103.87 32.136 102.661 32.136V34.136ZM106.824 33.0655C108.048 32.3307 109.014 31.3126 109.714 30.032L107.96 29.072C107.423 30.0527 106.703 30.8053 105.795 31.3505L106.824 33.0655ZM109.714 30.032C110.423 28.7365 110.765 27.277 110.765 25.68H108.765C108.765 26.9843 108.488 28.1062 107.96 29.072L109.714 30.032ZM110.765 25.68C110.765 24.0648 110.425 22.6013 109.711 21.3209L107.964 22.2951C108.487 23.2333 108.765 24.3512 108.765 25.68H110.765ZM109.714 21.328C109.012 20.0447 108.043 19.0335 106.811 18.319L105.807 20.049C106.709 20.5718 107.425 21.31 107.96 22.288L109.714 21.328ZM106.811 18.319C105.576 17.6027 104.183 17.256 102.661 17.256V19.256C103.87 19.256 104.909 19.528 105.807 20.049L106.811 18.319ZM102.661 17.256C101.157 17.256 99.7761 17.604 98.5435 18.319L99.5469 20.049C100.448 19.5266 101.477 19.256 102.661 19.256V17.256ZM98.5435 18.319C97.3147 19.0317 96.3376 20.0387 95.6149 21.3154L97.3554 22.3006C97.9128 21.316 98.6424 20.5737 99.5469 20.049L98.5435 18.319ZM95.6118 21.3209C94.8977 22.6013 94.5572 24.0648 94.5572 25.68H96.5572C96.5572 24.3512 96.8353 23.2333 97.3586 22.2951L95.6118 21.3209ZM94.5572 25.68C94.5572 27.277 94.899 28.7365 95.6079 30.032L97.3625 29.072C96.834 28.1062 96.5572 26.9843 96.5572 25.68H94.5572ZM95.6149 30.0446C96.3361 31.3186 97.3092 32.3326 98.5307 33.0655L99.5597 31.3505C98.6478 30.8034 97.9143 30.0467 97.3554 29.0594L95.6149 30.0446ZM98.5435 33.073C99.7761 33.788 101.157 34.136 102.661 34.136V32.136C101.477 32.136 100.448 31.8654 99.5469 31.343L98.5435 33.073ZM110.797 34V28.176H108.797V34H110.797ZM110.791 28.2892L111.079 25.7612L109.092 25.5348L108.804 28.0628L110.791 28.2892ZM111.077 25.5224L110.757 22.9944L108.773 23.2456L109.093 25.7736L111.077 25.5224ZM110.765 23.12V10.256H108.765V23.12H110.765ZM109.765 11.256H110.821V9.256H109.765V11.256ZM109.821 10.256V34H111.821V10.256H109.821ZM110.821 33H109.797V35H110.821V33ZM117.92 34H116.92V35H117.92V34ZM117.92 17.392V16.392H116.92V17.392H117.92ZM118.976 17.392H119.976V16.392H118.976V17.392ZM118.976 34V35H119.976V34H118.976ZM117.696 12.72L116.989 13.4271L116.989 13.4271L117.696 12.72ZM117.696 11.28L118.365 12.0233L118.385 12.0057L118.404 11.9871L117.696 11.28ZM119.168 11.28L118.425 11.949L118.46 11.9881L118.499 12.0233L119.168 11.28ZM119.168 12.72L118.461 12.0129L118.443 12.0315L118.425 12.051L119.168 12.72ZM118.92 34V17.392H116.92V34H118.92ZM117.92 18.392H118.976V16.392H117.92V18.392ZM117.976 17.392V34H119.976V17.392H117.976ZM118.976 33H117.92V35H118.976V33ZM118.432 12.04C118.428 12.04 118.427 12.0396 118.43 12.0402C118.434 12.0408 118.437 12.0419 118.439 12.0429C118.441 12.0439 118.44 12.0436 118.435 12.0399C118.429 12.036 118.419 12.0279 118.404 12.0129L116.989 13.4271C117.372 13.8098 117.865 14.04 118.432 14.04V12.04ZM118.404 12.0129C118.367 11.9768 118.363 11.9615 118.367 11.9702C118.369 11.9744 118.371 11.9818 118.374 11.9916C118.376 12.0014 118.376 12.01 118.376 12.016H116.376C116.376 12.5842 116.624 13.0623 116.989 13.4271L118.404 12.0129ZM118.376 12.016C118.376 12.0084 118.377 12.003 118.377 11.9996C118.377 11.9961 118.378 11.9945 118.378 11.9944C118.378 11.9944 118.378 11.9956 118.377 11.998C118.376 12.0003 118.375 12.0033 118.374 12.0067C118.37 12.0141 118.367 12.0203 118.363 12.0245C118.361 12.0286 118.36 12.028 118.365 12.0233L117.027 10.5367C116.594 10.9269 116.376 11.4469 116.376 12.016H118.376ZM118.404 11.9871C118.419 11.9721 118.429 11.964 118.435 11.9601C118.44 11.9564 118.441 11.9561 118.439 11.9571C118.437 11.9581 118.434 11.9592 118.43 11.9598C118.427 11.9604 118.428 11.96 118.432 11.96V9.96C117.865 9.96 117.372 10.1902 116.989 10.5729L118.404 11.9871ZM118.432 11.96C118.44 11.96 118.445 11.9603 118.449 11.9607C118.452 11.961 118.454 11.9613 118.454 11.9613C118.454 11.9613 118.453 11.9611 118.45 11.9604C118.448 11.9596 118.445 11.9586 118.442 11.9571C118.434 11.9539 118.428 11.9501 118.424 11.947C118.42 11.9441 118.42 11.9438 118.425 11.949L119.912 10.611C119.522 10.1775 119.002 9.96 118.432 9.96V11.96ZM118.499 12.0233C118.508 12.0312 118.51 12.0343 118.508 12.032C118.507 12.0294 118.502 12.0232 118.498 12.0138C118.494 12.0043 118.491 11.9952 118.489 11.988C118.488 11.981 118.488 11.9791 118.488 11.984H120.488C120.488 11.4121 120.253 10.9108 119.837 10.5367L118.499 12.0233ZM118.488 11.984C118.488 11.9888 118.488 11.9891 118.489 11.986C118.489 11.9829 118.49 11.9796 118.491 11.9773C118.492 11.975 118.492 11.9765 118.488 11.9818C118.484 11.9873 118.476 11.9979 118.461 12.0129L119.876 13.4271C120.258 13.0444 120.488 12.5512 120.488 11.984H118.488ZM118.425 12.051C118.42 12.0562 118.42 12.0559 118.424 12.053C118.428 12.0499 118.434 12.0461 118.442 12.0429C118.445 12.0414 118.448 12.0404 118.45 12.0396C118.453 12.0389 118.454 12.0387 118.454 12.0387C118.454 12.0387 118.452 12.039 118.449 12.0393C118.445 12.0397 118.44 12.04 118.432 12.04V14.04C119.002 14.04 119.522 13.8225 119.912 13.389L118.425 12.051ZM136.637 34H135.637V35H136.637V34ZM136.637 30.128H137.637V30.1002L137.635 30.0725L136.637 30.128ZM136.605 29.552H135.605V29.5798L135.606 29.6075L136.605 29.552ZM135.293 19.504L134.594 20.2198L134.594 20.2198L135.293 19.504ZM128.157 18.864L128.531 19.7911L128.54 19.7877L128.548 19.7842L128.157 18.864ZM125.565 20.464L124.765 21.064L125.425 21.9445L126.238 21.203L125.565 20.464ZM124.989 19.696L124.301 18.9695L123.654 19.5825L124.189 20.296L124.989 19.696ZM127.901 17.936L128.248 18.8737L128.256 18.8709L128.263 18.868L127.901 17.936ZM136.061 18.8L135.361 19.5144L135.368 19.5216L135.376 19.5286L136.061 18.8ZM137.661 34V35H138.661V34H137.661ZM127.229 33.52L126.827 34.4357L126.835 34.4391L127.229 33.52ZM125.213 31.888L124.373 32.4313L124.381 32.4427L125.213 31.888ZM125.085 27.184L125.956 27.6743L125.963 27.6629L125.085 27.184ZM126.973 25.52L127.393 26.4274L127.403 26.4229L126.973 25.52ZM136.989 24.88H137.989V23.88H136.989V24.88ZM136.989 25.744V26.744H137.989V25.744H136.989ZM126.685 26.768L126.02 26.0205L126.01 26.03L126.685 26.768ZM126.877 32.176L126.25 32.955L126.256 32.9597L126.261 32.9643L126.877 32.176ZM134.333 32.176L134.895 33.0026L134.901 32.9985L134.907 32.9944L134.333 32.176ZM136.605 29.2L137.499 28.7528L136.503 26.761L135.676 28.8286L136.605 29.2ZM136.957 29.904L137.904 30.225L138.038 29.8299L137.851 29.4568L136.957 29.904ZM134.653 32.944L134.083 32.1218L134.083 32.1218L134.653 32.944ZM137.637 34V30.128H135.637V34H137.637ZM137.635 30.0725L137.603 29.4965L135.606 29.6075L135.638 30.1835L137.635 30.0725ZM137.605 29.552V23.248H135.605V29.552H137.605ZM137.605 23.248C137.605 21.4318 137.118 19.8876 135.991 18.7882L134.594 20.2198C135.217 20.8271 135.605 21.7789 135.605 23.248H137.605ZM135.991 18.7882C134.87 17.6949 133.313 17.224 131.485 17.224V19.224C132.984 19.224 133.966 19.6064 134.594 20.2198L135.991 18.7882ZM131.485 17.224C130.15 17.224 128.905 17.4587 127.765 17.9438L128.548 19.7842C129.413 19.416 130.388 19.224 131.485 19.224V17.224ZM127.782 17.9369C126.68 18.3822 125.712 18.976 124.891 19.725L126.238 21.203C126.868 20.6293 127.628 20.1565 128.531 19.7911L127.782 17.9369ZM126.365 19.864L125.789 19.096L124.189 20.296L124.765 21.064L126.365 19.864ZM125.676 20.4225C126.355 19.7798 127.206 19.2597 128.248 18.8737L127.553 16.9983C126.291 17.4656 125.201 18.1189 124.301 18.9695L125.676 20.4225ZM128.263 18.868C129.297 18.4658 130.38 18.264 131.517 18.264V16.264C130.136 16.264 128.808 16.5102 127.538 17.004L128.263 18.868ZM131.517 18.264C133.334 18.264 134.561 18.7308 135.361 19.5144L136.76 18.0856C135.47 16.8212 133.667 16.264 131.517 16.264V18.264ZM135.376 19.5286C136.18 20.2843 136.661 21.4634 136.661 23.248H138.661C138.661 21.1073 138.075 19.321 136.746 18.0714L135.376 19.5286ZM136.661 23.248V34H138.661V23.248H136.661ZM137.661 33H136.637V35H137.661V33ZM130.461 33.096C129.3 33.096 128.364 32.9184 127.623 32.6009L126.835 34.4391C127.886 34.8896 129.104 35.096 130.461 35.096V33.096ZM127.631 32.6044C126.908 32.2869 126.395 31.8585 126.045 31.3333L124.381 32.4427C124.969 33.3255 125.8 33.9851 126.827 34.4356L127.631 32.6044ZM126.052 31.3447C125.694 30.7914 125.509 30.1611 125.509 29.424H123.509C123.509 30.5216 123.792 31.5339 124.373 32.4313L126.052 31.3447ZM125.509 29.424C125.509 28.7788 125.659 28.2019 125.956 27.6743L124.213 26.6937C123.742 27.5315 123.509 28.4479 123.509 29.424H125.509ZM125.963 27.6629C126.225 27.1826 126.673 26.7612 127.393 26.4273L126.552 24.6127C125.523 25.0894 124.713 25.7774 124.207 26.7051L125.963 27.6629ZM127.403 26.4229C128.114 26.0842 129.144 25.88 130.557 25.88V23.88C128.983 23.88 127.624 24.1025 126.543 24.6171L127.403 26.4229ZM130.557 25.88H136.989V23.88H130.557V25.88ZM135.989 24.88V25.744H137.989V24.88H135.989ZM136.989 24.744H130.557V26.744H136.989V24.744ZM130.557 24.744C128.668 24.744 127.068 25.0898 126.02 26.0206L127.349 27.5154C127.838 27.0809 128.819 26.744 130.557 26.744V24.744ZM126.01 26.03C125.048 26.9091 124.565 28.0445 124.565 29.36H126.565C126.565 28.5848 126.828 27.9922 127.359 27.506L126.01 26.03ZM124.565 29.36C124.565 30.8203 125.127 32.0515 126.25 32.955L127.504 31.397C126.877 30.8925 126.565 30.2463 126.565 29.36H124.565ZM126.261 32.9643C127.371 33.83 128.833 34.2 130.525 34.2V32.2C129.102 32.2 128.132 31.8873 127.492 31.3877L126.261 32.9643ZM130.525 34.2C132.208 34.2 133.688 33.825 134.895 33.0026L133.77 31.3494C132.972 31.8923 131.913 32.2 130.525 32.2V34.2ZM134.907 32.9944C136.088 32.1653 136.958 31.0083 137.533 29.5714L135.676 28.8286C135.227 29.9517 134.583 30.7787 133.758 31.3576L134.907 32.9944ZM135.71 29.6472L136.062 30.3512L137.851 29.4568L137.499 28.7528L135.71 29.6472ZM136.01 29.583C135.653 30.635 135.019 31.474 134.083 32.1218L135.222 33.7662C136.505 32.878 137.407 31.6903 137.904 30.225L136.01 29.583ZM134.083 32.1218C133.179 32.7481 131.994 33.096 130.461 33.096V35.096C132.298 35.096 133.908 34.6759 135.222 33.7662L134.083 32.1218Z" fill="#303030"/>
<path d="M49.3635 35V9.8H51.5595L68.9475 31.688H67.7955V9.8H70.4235V35H68.2275L50.8755 13.112H52.0275V35H49.3635Z" fill="#0EA5E9"/>
<path d="M49.3635 35H48.3635V36H49.3635V35ZM49.3635 9.8V8.8H48.3635V9.8H49.3635ZM51.5595 9.8L52.3425 9.17798L52.0422 8.8H51.5595V9.8ZM68.9475 31.688V32.688H71.019L69.7305 31.066L68.9475 31.688ZM67.7955 31.688H66.7955V32.688H67.7955V31.688ZM67.7955 9.8V8.8H66.7955V9.8H67.7955ZM70.4235 9.8H71.4235V8.8H70.4235V9.8ZM70.4235 35V36H71.4235V35H70.4235ZM68.2275 35L67.4438 35.6212L67.7441 36H68.2275V35ZM50.8755 13.112V12.112H48.8066L50.0918 13.7332L50.8755 13.112ZM52.0275 13.112H53.0275V12.112H52.0275V13.112ZM52.0275 35V36H53.0275V35H52.0275ZM50.3635 35V9.8H48.3635V35H50.3635ZM49.3635 10.8H51.5595V8.8H49.3635V10.8ZM50.7765 10.422L68.1645 32.31L69.7305 31.066L52.3425 9.17798L50.7765 10.422ZM68.9475 30.688H67.7955V32.688H68.9475V30.688ZM68.7955 31.688V9.8H66.7955V31.688H68.7955ZM67.7955 10.8H70.4235V8.8H67.7955V10.8ZM69.4235 9.8V35H71.4235V9.8H69.4235ZM70.4235 34H68.2275V36H70.4235V34ZM69.0111 34.3788L51.6591 12.4908L50.0918 13.7332L67.4438 35.6212L69.0111 34.3788ZM50.8755 14.112H52.0275V12.112H50.8755V14.112ZM51.0275 13.112V35H53.0275V13.112H51.0275ZM52.0275 34H49.3635V36H52.0275V34Z" fill="#0EA5E9"/>
<path d="M38.7513 58V35.104H29.8953V32.8H50.2713V35.104H41.4153V58H38.7513Z" fill="#0EA5E9"/>
<path d="M38.7513 58H37.7513V59H38.7513V58ZM38.7513 35.104H39.7513V34.104H38.7513V35.104ZM29.8953 35.104H28.8953V36.104H29.8953V35.104ZM29.8953 32.8V31.8H28.8953V32.8H29.8953ZM50.2713 32.8H51.2713V31.8H50.2713V32.8ZM50.2713 35.104V36.104H51.2713V35.104H50.2713ZM41.4153 35.104V34.104H40.4153V35.104H41.4153ZM41.4153 58V59H42.4153V58H41.4153ZM39.7513 58V35.104H37.7513V58H39.7513ZM38.7513 34.104H29.8953V36.104H38.7513V34.104ZM30.8953 35.104V32.8H28.8953V35.104H30.8953ZM29.8953 33.8H50.2713V31.8H29.8953V33.8ZM49.2713 32.8V35.104H51.2713V32.8H49.2713ZM50.2713 34.104H41.4153V36.104H50.2713V34.104ZM40.4153 35.104V58H42.4153V35.104H40.4153ZM41.4153 57H38.7513V59H41.4153V57Z" fill="#0EA5E9"/>
<g filter="url(#filter1_i_166_2)">
<path d="M57.6577 57.096C56.2924 57.096 55.0124 56.8933 53.8177 56.488C52.6231 56.0613 51.7164 55.528 51.0977 54.888L51.6097 54.056C52.2284 54.6107 53.0711 55.1013 54.1377 55.528C55.2044 55.9547 56.3884 56.168 57.6897 56.168C59.5457 56.168 60.8791 55.848 61.6897 55.208C62.5217 54.568 62.9377 53.736 62.9377 52.712C62.9377 51.9653 62.7351 51.3787 62.3297 50.952C61.9244 50.5253 61.3911 50.1947 60.7297 49.96C60.0684 49.7253 59.3324 49.544 58.5217 49.416C57.7324 49.2667 56.9324 49.1067 56.1217 48.936C55.3111 48.744 54.5751 48.4987 53.9137 48.2C53.2524 47.88 52.7191 47.4427 52.3137 46.888C51.9084 46.3333 51.7057 45.5973 51.7057 44.68C51.7057 43.8907 51.9191 43.1653 52.3457 42.504C52.7937 41.8427 53.4657 41.3093 54.3617 40.904C55.2577 40.4773 56.3991 40.264 57.7857 40.264C58.8097 40.264 59.8337 40.424 60.8577 40.744C61.9031 41.0427 62.7351 41.448 63.3537 41.96L62.8097 42.792C62.1484 42.2587 61.3697 41.864 60.4737 41.608C59.5991 41.352 58.6924 41.224 57.7537 41.224C56.0257 41.224 54.7671 41.5547 53.9777 42.216C53.1884 42.8773 52.7937 43.688 52.7937 44.648C52.7937 45.416 52.9964 46.0347 53.4017 46.504C53.8071 46.952 54.3404 47.2933 55.0017 47.528C55.6631 47.7627 56.3884 47.9547 57.1777 48.104C57.9884 48.2533 58.7884 48.4133 59.5777 48.584C60.3884 48.7547 61.1244 48.9893 61.7857 49.288C62.4471 49.5867 62.9804 50.0027 63.3857 50.536C63.7911 51.0693 63.9937 51.7947 63.9937 52.712C63.9937 53.5653 63.7484 54.3333 63.2577 55.016C62.7884 55.6773 62.0844 56.1893 61.1457 56.552C60.2284 56.9147 59.0657 57.096 57.6577 57.096ZM67.6085 63.304C66.8618 63.304 66.1685 63.176 65.5285 62.92C64.8885 62.6853 64.3445 62.3227 63.8965 61.832L64.5045 61C64.9525 61.4693 65.4218 61.8107 65.9125 62.024C66.4032 62.2587 66.9685 62.376 67.6085 62.376C68.4192 62.376 69.1338 62.152 69.7525 61.704C70.3712 61.256 70.9472 60.4347 71.4805 59.24L72.6965 56.616L72.8565 56.36L80.0885 40.392H81.2085L72.5045 59.496C72.0778 60.4347 71.6085 61.1813 71.0965 61.736C70.6058 62.312 70.0725 62.7173 69.4965 62.952C68.9205 63.1867 68.2912 63.304 67.6085 63.304ZM72.7285 57.384L64.9845 40.392H66.1365L73.3365 56.296L72.7285 57.384ZM91.223 63.304C89.7297 63.304 88.311 63.0587 86.967 62.568C85.6443 62.0987 84.5777 61.448 83.767 60.616L84.375 59.816C85.2283 60.6267 86.2417 61.2453 87.415 61.672C88.5883 62.12 89.847 62.344 91.191 62.344C93.5163 62.344 95.2337 61.7893 96.343 60.68C97.4523 59.592 98.007 57.8747 98.007 55.528V50.504L98.327 48.328L98.039 46.152V40.392H99.063V55.4C99.063 58.1093 98.4123 60.104 97.111 61.384C95.8097 62.664 93.847 63.304 91.223 63.304ZM90.775 56.424C89.2177 56.424 87.8203 56.0827 86.583 55.4C85.3457 54.696 84.3643 53.736 83.639 52.52C82.9137 51.304 82.551 49.9067 82.551 48.328C82.551 46.7493 82.9137 45.352 83.639 44.136C84.3643 42.92 85.3457 41.9707 86.583 41.288C87.8203 40.6053 89.2177 40.264 90.775 40.264C92.311 40.264 93.6763 40.6053 94.871 41.288C96.0657 41.9493 97.015 42.888 97.719 44.104C98.423 45.2987 98.775 46.7067 98.775 48.328C98.775 49.9493 98.423 51.368 97.719 52.584C97.015 53.8 96.0657 54.7493 94.871 55.432C93.6763 56.0933 92.311 56.424 90.775 56.424ZM90.807 55.464C92.215 55.464 93.4523 55.1653 94.519 54.568C95.607 53.9707 96.4603 53.128 97.079 52.04C97.6977 50.952 98.007 49.7147 98.007 48.328C98.007 46.92 97.6977 45.6933 97.079 44.648C96.4603 43.5813 95.607 42.7493 94.519 42.152C93.4523 41.5547 92.215 41.256 90.807 41.256C89.4417 41.256 88.215 41.5547 87.127 42.152C86.039 42.7493 85.175 43.5813 84.535 44.648C83.9163 45.6933 83.607 46.92 83.607 48.328C83.607 49.7147 83.9163 50.952 84.535 52.04C85.175 53.128 86.039 53.9707 87.127 54.568C88.215 55.1653 89.4417 55.464 90.807 55.464ZM116.718 57V53.128L116.686 52.552V46.248C116.686 44.6053 116.248 43.3573 115.374 42.504C114.499 41.6507 113.23 41.224 111.566 41.224C110.35 41.224 109.24 41.4373 108.238 41.864C107.235 42.2693 106.371 42.8027 105.646 43.464L105.07 42.696C105.859 41.9493 106.83 41.3627 107.982 40.936C109.134 40.488 110.339 40.264 111.598 40.264C113.582 40.264 115.096 40.776 116.142 41.8C117.208 42.8027 117.742 44.2853 117.742 46.248V57H116.718ZM110.542 57.096C109.283 57.096 108.206 56.904 107.31 56.52C106.435 56.136 105.763 55.592 105.294 54.888C104.824 54.1627 104.59 53.3413 104.59 52.424C104.59 51.6133 104.782 50.8667 105.166 50.184C105.55 49.48 106.179 48.9253 107.054 48.52C107.95 48.0933 109.144 47.88 110.638 47.88H117.07V48.744H110.638C108.824 48.744 107.534 49.0853 106.766 49.768C106.019 50.4507 105.646 51.3147 105.646 52.36C105.646 53.5333 106.083 54.472 106.958 55.176C107.832 55.8587 109.048 56.2 110.606 56.2C112.142 56.2 113.411 55.8587 114.414 55.176C115.416 54.472 116.174 53.48 116.686 52.2L117.038 52.904C116.611 54.1627 115.843 55.176 114.734 55.944C113.624 56.712 112.227 57.096 110.542 57.096ZM132.498 40.264C133.863 40.264 135.036 40.5307 136.018 41.064C137.02 41.5973 137.799 42.3867 138.354 43.432C138.908 44.456 139.186 45.7253 139.186 47.24V57H138.13V47.304C138.13 45.32 137.628 43.816 136.626 42.792C135.623 41.768 134.215 41.256 132.402 41.256C131.015 41.256 129.82 41.5333 128.818 42.088C127.815 42.6427 127.047 43.432 126.514 44.456C125.98 45.48 125.714 46.6747 125.714 48.04V57H124.658V40.392H125.682V45.064L125.554 44.776C126.066 43.3893 126.908 42.2907 128.082 41.48C129.276 40.6693 130.748 40.264 132.498 40.264ZM146.863 52.2V50.92L158.415 40.392H159.823L152.559 47.112L151.855 47.656L146.863 52.2ZM146.095 57V33.256H147.151V57H146.095ZM159.215 57L151.663 47.528L152.431 46.792L160.559 57H159.215ZM170.242 57.096C168.685 57.096 167.288 56.744 166.05 56.04C164.834 55.3147 163.864 54.312 163.138 53.032C162.434 51.752 162.082 50.3013 162.082 48.68C162.082 47.0373 162.434 45.5867 163.138 44.328C163.864 43.0693 164.834 42.0773 166.05 41.352C167.288 40.6267 168.685 40.264 170.242 40.264C171.8 40.264 173.197 40.6267 174.434 41.352C175.672 42.0773 176.642 43.0693 177.346 44.328C178.05 45.5867 178.402 47.0373 178.402 48.68C178.402 50.3013 178.05 51.752 177.346 53.032C176.642 54.312 175.672 55.3147 174.434 56.04C173.197 56.744 171.8 57.096 170.242 57.096ZM170.242 56.136C171.608 56.136 172.824 55.8267 173.89 55.208C174.978 54.568 175.821 53.6827 176.418 52.552C177.037 51.4213 177.346 50.1307 177.346 48.68C177.346 47.208 177.037 45.9173 176.418 44.808C175.821 43.6773 174.978 42.8027 173.89 42.184C172.824 41.5653 171.608 41.256 170.242 41.256C168.898 41.256 167.693 41.5653 166.626 42.184C165.56 42.8027 164.706 43.6773 164.066 44.808C163.448 45.9173 163.138 47.208 163.138 48.68C163.138 50.1307 163.448 51.4213 164.066 52.552C164.706 53.6827 165.56 54.568 166.626 55.208C167.693 55.8267 168.898 56.136 170.242 56.136ZM187.35 57L179.766 40.392H180.918L188.118 56.36H187.638L194.87 40.392H195.99L188.406 57H187.35ZM209.78 57V53.128L209.748 52.552V46.248C209.748 44.6053 209.311 43.3573 208.436 42.504C207.562 41.6507 206.292 41.224 204.628 41.224C203.412 41.224 202.303 41.4373 201.3 41.864C200.298 42.2693 199.434 42.8027 198.708 43.464L198.132 42.696C198.922 41.9493 199.892 41.3627 201.044 40.936C202.196 40.488 203.402 40.264 204.66 40.264C206.644 40.264 208.159 40.776 209.204 41.8C210.271 42.8027 210.804 44.2853 210.804 46.248V57H209.78ZM203.604 57.096C202.346 57.096 201.268 56.904 200.372 56.52C199.498 56.136 198.826 55.592 198.356 54.888C197.887 54.1627 197.652 53.3413 197.652 52.424C197.652 51.6133 197.844 50.8667 198.228 50.184C198.612 49.48 199.242 48.9253 200.116 48.52C201.012 48.0933 202.207 47.88 203.7 47.88H210.132V48.744H203.7C201.887 48.744 200.596 49.0853 199.828 49.768C199.082 50.4507 198.708 51.3147 198.708 52.36C198.708 53.5333 199.146 54.472 200.02 55.176C200.895 55.8587 202.111 56.2 203.668 56.2C205.204 56.2 206.474 55.8587 207.476 55.176C208.479 54.472 209.236 53.48 209.748 52.2L210.1 52.904C209.674 54.1627 208.906 55.176 207.796 55.944C206.687 56.712 205.29 57.096 203.604 57.096Z" fill="#303030"/>
</g>
<path d="M53.8177 56.488L53.4814 57.4297L53.4889 57.4324L53.4964 57.435L53.8177 56.488ZM51.0977 54.888L50.2461 54.3639L49.8393 55.025L50.3788 55.583L51.0977 54.888ZM51.6097 54.056L52.2773 53.3114L51.3857 52.5121L50.7581 53.5319L51.6097 54.056ZM54.1377 55.528L54.5091 54.5995L54.5091 54.5995L54.1377 55.528ZM61.6897 55.208L61.08 54.4153L61.0701 54.4231L61.6897 55.208ZM62.3297 50.952L63.0547 50.2633L63.0547 50.2632L62.3297 50.952ZM60.7297 49.96L61.0642 49.0176L61.0642 49.0176L60.7297 49.96ZM58.5217 49.416L58.3359 50.3986L58.3508 50.4014L58.3658 50.4038L58.5217 49.416ZM56.1217 48.936L55.8913 49.9091L55.9035 49.912L55.9157 49.9145L56.1217 48.936ZM53.9137 48.2L53.4782 49.1002L53.4901 49.1059L53.5022 49.1114L53.9137 48.2ZM52.3137 46.888L53.1211 46.298L53.1211 46.298L52.3137 46.888ZM52.3457 42.504L51.5178 41.9432L51.5115 41.9524L51.5054 41.9619L52.3457 42.504ZM54.3617 40.904L54.7739 41.8151L54.7828 41.8111L54.7917 41.8069L54.3617 40.904ZM60.8577 40.744L60.5595 41.6985L60.5712 41.7021L60.583 41.7055L60.8577 40.744ZM63.3537 41.96L64.1907 42.5072L64.6797 41.7593L63.9913 41.1896L63.3537 41.96ZM62.8097 42.792L62.182 43.5704L63.0421 44.264L63.6467 43.3392L62.8097 42.792ZM60.4737 41.608L60.1928 42.5678L60.199 42.5695L60.4737 41.608ZM53.9777 42.216L54.62 42.9825L54.62 42.9825L53.9777 42.216ZM53.4017 46.504L52.6449 47.1576L52.6525 47.1664L52.6602 47.1749L53.4017 46.504ZM55.0017 47.528L54.6673 48.4704L54.6673 48.4704L55.0017 47.528ZM57.1777 48.104L56.9919 49.0866L56.9966 49.0875L57.1777 48.104ZM59.5777 48.584L59.3664 49.5614L59.3717 49.5625L59.5777 48.584ZM61.7857 49.288L61.3742 50.1994L61.3742 50.1994L61.7857 49.288ZM63.2577 55.016L62.4457 54.4324L62.4422 54.4373L63.2577 55.016ZM61.1457 56.552L60.7853 55.6192L60.7781 55.622L61.1457 56.552ZM57.6577 56.096C56.3927 56.096 55.222 55.9085 54.139 55.541L53.4964 57.435C54.8028 57.8782 56.1921 58.096 57.6577 58.096V56.096ZM54.1541 55.5463C53.0468 55.1508 52.293 54.6856 51.8167 54.193L50.3788 55.583C51.1399 56.3704 52.1993 56.9719 53.4814 57.4297L54.1541 55.5463ZM51.9494 55.4121L52.4614 54.5801L50.7581 53.5319L50.2461 54.3639L51.9494 55.4121ZM50.9422 54.8006C51.6744 55.457 52.6296 56.0018 53.7664 56.4565L54.5091 54.5995C53.5126 54.2009 52.7824 53.7643 52.2773 53.3114L50.9422 54.8006ZM53.7664 56.4565C54.9658 56.9362 56.278 57.168 57.6897 57.168V55.168C56.4988 55.168 55.443 54.9731 54.5091 54.5995L53.7664 56.4565ZM57.6897 57.168C59.6119 57.168 61.2287 56.8461 62.3094 55.9929L61.0701 54.4231C60.5295 54.8499 59.4796 55.168 57.6897 55.168V57.168ZM62.2995 56.0006C63.3703 55.1769 63.9377 54.0555 63.9377 52.712H61.9377C61.9377 53.4165 61.6732 53.9591 61.08 54.4154L62.2995 56.0006ZM63.9377 52.712C63.9377 51.7808 63.6806 50.922 63.0547 50.2633L61.6047 51.6407C61.7896 51.8353 61.9377 52.1498 61.9377 52.712H63.9377ZM63.0547 50.2632C62.522 49.7025 61.8455 49.2948 61.0642 49.0176L60.3953 50.9024C60.9367 51.0945 61.3268 51.3482 61.6047 51.6407L63.0547 50.2632ZM61.0642 49.0176C60.3361 48.7592 59.5392 48.5643 58.6777 48.4282L58.3658 50.4038C59.1256 50.5237 59.8007 50.6914 60.3953 50.9024L61.0642 49.0176ZM58.7076 48.4334C57.9252 48.2854 57.1319 48.1268 56.3278 47.9575L55.9157 49.9145C56.7329 50.0866 57.5396 50.2479 58.3359 50.3986L58.7076 48.4334ZM56.3522 47.9629C55.5948 47.7835 54.9206 47.5575 54.3253 47.2886L53.5022 49.1114C54.2296 49.4399 55.0273 49.7045 55.8913 49.9091L56.3522 47.9629ZM54.3493 47.2998C53.8249 47.0461 53.4231 46.7112 53.1211 46.298L51.5064 47.478C52.015 48.1741 52.6799 48.7139 53.4782 49.1002L54.3493 47.2998ZM53.1211 46.298C52.8769 45.9638 52.7057 45.4556 52.7057 44.68H50.7057C50.7057 45.7391 50.9399 46.7029 51.5064 47.478L53.1211 46.298ZM52.7057 44.68C52.7057 44.0824 52.864 43.5454 53.186 43.0461L51.5054 41.9619C50.9742 42.7853 50.7057 43.699 50.7057 44.68H52.7057ZM53.1737 43.0648C53.4965 42.5882 54.0073 42.1619 54.7739 41.8151L53.9496 39.9929C52.9241 40.4568 52.091 41.0971 51.5178 41.9432L53.1737 43.0648ZM54.7917 41.8069C55.511 41.4643 56.4924 41.264 57.7857 41.264V39.264C56.3057 39.264 55.0045 39.4904 53.9318 40.0011L54.7917 41.8069ZM57.7857 41.264C58.7039 41.264 59.6274 41.4072 60.5595 41.6985L61.156 39.7895C60.0401 39.4408 58.9156 39.264 57.7857 39.264V41.264ZM60.583 41.7055C61.5398 41.9789 62.2345 42.3318 62.7162 42.7304L63.9913 41.1896C63.2356 40.5642 62.2663 40.1064 61.1325 39.7825L60.583 41.7055ZM62.5168 41.4127L61.9728 42.2447L63.6467 43.3392L64.1907 42.5072L62.5168 41.4127ZM63.4375 42.0136C62.6622 41.3884 61.7607 40.9357 60.7485 40.6465L60.199 42.5695C60.9788 42.7923 61.6346 43.129 62.182 43.5704L63.4375 42.0136ZM60.7546 40.6483C59.786 40.3648 58.7846 40.224 57.7537 40.224V42.224C58.6002 42.224 59.4121 42.3392 60.1928 42.5677L60.7546 40.6483ZM57.7537 40.224C55.9374 40.224 54.392 40.5644 53.3355 41.4495L54.62 42.9825C55.1422 42.545 56.1141 42.224 57.7537 42.224V40.224ZM53.3355 41.4495C52.3382 42.2851 51.7937 43.3685 51.7937 44.648H53.7937C53.7937 44.0075 54.0386 43.4696 54.62 42.9825L53.3355 41.4495ZM51.7937 44.648C51.7937 45.5967 52.0479 46.4663 52.6449 47.1576L54.1586 45.8504C53.945 45.603 53.7937 45.2353 53.7937 44.648H51.7937ZM52.6602 47.1749C53.1934 47.7642 53.8752 48.1894 54.6673 48.4704L55.3362 46.5856C54.8056 46.3973 54.4207 46.1398 54.1433 45.8331L52.6602 47.1749ZM54.6673 48.4704C55.3834 48.7245 56.1591 48.929 56.9919 49.0866L57.3636 47.1214C56.6177 46.9803 55.9427 46.8008 55.3362 46.5856L54.6673 48.4704ZM56.9966 49.0875C57.7974 49.235 58.5873 49.393 59.3664 49.5614L59.7891 47.6066C58.9895 47.4337 58.1795 47.2717 57.3589 47.1205L56.9966 49.0875ZM59.3717 49.5625C60.1214 49.7204 60.7872 49.9343 61.3742 50.1994L62.1973 48.3766C61.4616 48.0444 60.6554 47.789 59.7838 47.6054L59.3717 49.5625ZM61.3742 50.1994C61.8968 50.4354 62.2932 50.7511 62.5896 51.1411L64.1819 49.9309C63.6676 49.2542 62.9974 48.7379 62.1973 48.3766L61.3742 50.1994ZM62.5896 51.1411C62.8215 51.4462 62.9937 51.9337 62.9937 52.712H64.9937C64.9937 51.6557 64.7607 50.6924 64.1819 49.9309L62.5896 51.1411ZM62.9937 52.712C62.9937 53.3593 62.8122 53.9225 62.4457 54.4324L64.0698 55.5996C64.6846 54.7442 64.9937 53.7714 64.9937 52.712H62.9937ZM62.4422 54.4373C62.1112 54.9037 61.5851 55.3102 60.7853 55.6192L61.5061 57.4848C62.5837 57.0685 63.4656 56.451 64.0733 55.5947L62.4422 54.4373ZM60.7781 55.622C60.0164 55.9232 58.9894 56.096 57.6577 56.096V58.096C59.1421 58.096 60.4404 57.9062 61.5134 57.482L60.7781 55.622ZM65.5285 62.92L65.8999 61.9915L65.8864 61.9861L65.8727 61.9811L65.5285 62.92ZM63.8965 61.832L63.0891 61.242L62.6066 61.9023L63.158 62.5063L63.8965 61.832ZM64.5045 61L65.2278 60.3095L64.4024 59.4448L63.6971 60.41L64.5045 61ZM65.9125 62.024L66.3439 61.1219L66.3277 61.1141L66.3112 61.1069L65.9125 62.024ZM69.7525 61.704L69.166 60.8941L69.166 60.8941L69.7525 61.704ZM71.4805 59.24L70.5731 58.8195L70.5674 58.8323L71.4805 59.24ZM72.6965 56.616L71.8485 56.086L71.8154 56.1389L71.7892 56.1955L72.6965 56.616ZM72.8565 56.36L73.7045 56.89L73.7399 56.8334L73.7674 56.7726L72.8565 56.36ZM80.0885 40.392V39.392H79.4436L79.1776 39.9794L80.0885 40.392ZM81.2085 40.392L82.1185 40.8066L82.763 39.392H81.2085V40.392ZM72.5045 59.496L71.5945 59.0814L71.5941 59.0822L72.5045 59.496ZM71.0965 61.736L70.3617 61.0577L70.3482 61.0724L70.3353 61.0875L71.0965 61.736ZM69.4965 62.952L69.1192 62.0259L69.1192 62.0259L69.4965 62.952ZM72.7285 57.384L71.8185 57.7987L72.6378 59.5963L73.6014 57.8718L72.7285 57.384ZM64.9845 40.392V39.392H63.4298L64.0745 40.8067L64.9845 40.392ZM66.1365 40.392L67.0475 39.9796L66.7815 39.392H66.1365V40.392ZM73.3365 56.296L74.2094 56.7838L74.4556 56.3433L74.2475 55.8836L73.3365 56.296ZM67.6085 62.304C66.9784 62.304 66.4123 62.1965 65.8999 61.9915L65.1571 63.8485C65.9247 64.1555 66.7453 64.304 67.6085 64.304V62.304ZM65.8727 61.9811C65.3794 61.8002 64.9718 61.5267 64.635 61.1577L63.158 62.5063C63.7171 63.1187 64.3976 63.5704 65.1842 63.8589L65.8727 61.9811ZM64.7039 62.422L65.3119 61.59L63.6971 60.41L63.0891 61.242L64.7039 62.422ZM63.7811 61.6905C64.3021 62.2362 64.8778 62.6646 65.5138 62.9411L66.3112 61.1069C65.9658 60.9568 65.6029 60.7025 65.2278 60.3095L63.7811 61.6905ZM65.481 62.9261C66.1282 63.2356 66.8454 63.376 67.6085 63.376V61.376C67.0916 61.376 66.6781 61.2817 66.3439 61.1219L65.481 62.9261ZM67.6085 63.376C68.6161 63.376 69.539 63.0933 70.339 62.5139L69.166 60.8941C68.7287 61.2107 68.2222 61.376 67.6085 61.376V63.376ZM70.339 62.5139C71.1683 61.9134 71.8334 60.9025 72.3936 59.6477L70.5674 58.8323C70.0609 59.9668 69.574 60.5986 69.166 60.8941L70.339 62.5139ZM72.3878 59.6605L73.6038 57.0365L71.7892 56.1955L70.5732 58.8195L72.3878 59.6605ZM73.5445 57.146L73.7045 56.89L72.0085 55.83L71.8485 56.086L73.5445 57.146ZM73.7674 56.7726L80.9994 40.8046L79.1776 39.9794L71.9456 55.9474L73.7674 56.7726ZM80.0885 41.392H81.2085V39.392H80.0885V41.392ZM80.2985 39.9774L71.5945 59.0814L73.4145 59.9106L82.1185 40.8066L80.2985 39.9774ZM71.5941 59.0822C71.1966 59.9568 70.7805 60.6041 70.3617 61.0577L71.8313 62.4143C72.4365 61.7586 72.9591 60.9125 73.4149 59.9098L71.5941 59.0822ZM70.3353 61.0875C69.9262 61.5677 69.518 61.8634 69.1192 62.0259L69.8738 63.8781C70.627 63.5712 71.2854 63.0563 71.8577 62.3845L70.3353 61.0875ZM69.1192 62.0259C68.6742 62.2072 68.1745 62.304 67.6085 62.304V64.304C68.4079 64.304 69.1668 64.1661 69.8738 63.8781L69.1192 62.0259ZM73.6384 56.9693L65.8944 39.9773L64.0745 40.8067L71.8185 57.7987L73.6384 56.9693ZM64.9845 41.392H66.1365V39.392H64.9845V41.392ZM65.2255 40.8044L72.4255 56.7084L74.2475 55.8836L67.0475 39.9796L65.2255 40.8044ZM72.4635 55.8082L71.8556 56.8962L73.6014 57.8718L74.2094 56.7838L72.4635 55.8082ZM86.967 62.568L87.3099 61.6286L87.3014 61.6256L86.967 62.568ZM83.767 60.616L82.9708 60.0109L82.4495 60.6968L83.0508 61.3139L83.767 60.616ZM84.375 59.816L85.0637 59.091L84.2543 58.3221L83.5788 59.2109L84.375 59.816ZM87.415 61.672L87.7717 60.7378L87.7642 60.7349L87.7567 60.7322L87.415 61.672ZM96.343 60.68L95.6428 59.966L95.6359 59.9729L96.343 60.68ZM98.007 50.504L97.0176 50.3585L97.007 50.4309V50.504H98.007ZM98.327 48.328L99.3164 48.4735L99.3367 48.3353L99.3183 48.1968L98.327 48.328ZM98.039 46.152H97.039V46.2179L97.0476 46.2832L98.039 46.152ZM98.039 40.392V39.392H97.039V40.392H98.039ZM99.063 40.392H100.063V39.392H99.063V40.392ZM97.111 61.384L97.8122 62.0969L97.8122 62.0969L97.111 61.384ZM86.583 55.4L86.0884 56.2692L86.0999 56.2756L86.583 55.4ZM83.639 52.52L82.7802 53.0323L82.7802 53.0323L83.639 52.52ZM83.639 44.136L84.4978 44.6483L84.4978 44.6483L83.639 44.136ZM86.583 41.288L86.0999 40.4124L86.0999 40.4124L86.583 41.288ZM94.871 41.288L94.3748 42.1563L94.3867 42.1629L94.871 41.288ZM97.719 44.104L96.8535 44.6051L96.8575 44.6117L97.719 44.104ZM97.719 52.584L96.8536 52.083L96.8536 52.083L97.719 52.584ZM94.871 55.432L95.3554 56.307L95.3671 56.3002L94.871 55.432ZM94.519 54.568L94.0377 53.6914L94.0304 53.6955L94.519 54.568ZM97.079 52.04L97.9483 52.5343L97.9483 52.5343L97.079 52.04ZM97.079 44.648L96.2139 45.1497L96.2184 45.1573L97.079 44.648ZM94.519 42.152L94.0304 43.0245L94.0377 43.0286L94.519 42.152ZM84.535 44.648L83.6775 44.1335L83.6744 44.1387L84.535 44.648ZM84.535 52.04L83.6657 52.5343L83.6693 52.5407L83.6731 52.547L84.535 52.04ZM87.127 54.568L87.6083 53.6914L87.6083 53.6914L87.127 54.568ZM91.223 62.304C89.8415 62.304 88.5393 62.0775 87.3099 61.6286L86.6241 63.5074C88.0827 64.0399 89.6179 64.304 91.223 64.304V62.304ZM87.3014 61.6256C86.0934 61.1969 85.167 60.62 84.4832 59.9181L83.0508 61.3139C83.9883 62.276 85.1952 63.0004 86.6326 63.5104L87.3014 61.6256ZM84.5632 61.2211L85.1712 60.4211L83.5788 59.2109L82.9708 60.0109L84.5632 61.2211ZM83.6862 60.541C84.6452 61.452 85.7787 62.141 87.0733 62.6118L87.7567 60.7322C86.7046 60.3496 85.8114 59.8013 85.0637 59.091L83.6862 60.541ZM87.0583 62.6062C88.3533 63.1007 89.7337 63.344 91.191 63.344V61.344C89.9603 61.344 88.8234 61.1393 87.7717 60.7378L87.0583 62.6062ZM91.191 63.344C93.6546 63.344 95.6793 62.7579 97.0501 61.3871L95.6359 59.9729C94.788 60.8208 93.3781 61.344 91.191 61.344V63.344ZM97.0432 61.3939C98.4232 60.0405 99.007 58.0078 99.007 55.528H97.007C97.007 57.7415 96.4815 59.1435 95.6428 59.9661L97.0432 61.3939ZM99.007 55.528V50.504H97.007V55.528H99.007ZM98.9964 50.6495L99.3164 48.4735L97.3376 48.1825L97.0176 50.3585L98.9964 50.6495ZM99.3183 48.1968L99.0303 46.0208L97.0476 46.2832L97.3356 48.4592L99.3183 48.1968ZM99.039 46.152V40.392H97.039V46.152H99.039ZM98.039 41.392H99.063V39.392H98.039V41.392ZM98.063 40.392V55.4H100.063V40.392H98.063ZM98.063 55.4C98.063 57.9704 97.4442 59.6536 96.4098 60.6711L97.8122 62.0969C99.3804 60.5544 100.063 58.2483 100.063 55.4H98.063ZM96.4098 60.6711C95.364 61.6997 93.6997 62.304 91.223 62.304V64.304C93.9943 64.304 96.2553 63.6283 97.8122 62.0969L96.4098 60.6711ZM90.775 55.424C89.369 55.424 88.1408 55.1174 87.0661 54.5244L86.0999 56.2756C87.4999 57.048 89.0663 57.424 90.775 57.424V55.424ZM87.0775 54.5308C85.9896 53.9118 85.1341 53.0744 84.4978 52.0077L82.7802 53.0323C83.5946 54.3976 84.7018 55.4802 86.0885 56.2692L87.0775 54.5308ZM84.4978 52.0077C83.8752 50.9639 83.551 49.7476 83.551 48.328H81.551C81.551 50.0658 81.9521 51.6441 82.7802 53.0323L84.4978 52.0077ZM83.551 48.328C83.551 46.9084 83.8752 45.6921 84.4978 44.6483L82.7802 43.6237C81.9521 45.0119 81.551 46.5902 81.551 48.328H83.551ZM84.4978 44.6483C85.1325 43.5842 85.9843 42.7604 87.0661 42.1636L86.0999 40.4124C84.707 41.1809 83.5961 42.2558 82.7802 43.6237L84.4978 44.6483ZM87.0661 42.1636C88.1408 41.5706 89.369 41.264 90.775 41.264V39.264C89.0663 39.264 87.4999 39.64 86.0999 40.4124L87.0661 42.1636ZM90.775 41.264C92.1577 41.264 93.3483 41.5696 94.3749 42.1562L95.3671 40.4198C94.0044 39.641 92.4643 39.264 90.775 39.264V41.264ZM94.3867 42.1629C95.418 42.7338 96.2376 43.5411 96.8536 44.605L98.5844 43.603C97.7924 42.2349 96.7133 41.1649 95.3553 40.4131L94.3867 42.1629ZM96.8575 44.6117C97.4565 45.6282 97.775 46.8547 97.775 48.328H99.775C99.775 46.5587 99.3895 44.9691 98.5805 43.5963L96.8575 44.6117ZM97.775 48.328C97.775 49.8008 97.4566 51.0413 96.8536 52.083L98.5844 53.085C99.3894 51.6947 99.775 50.0978 99.775 48.328H97.775ZM96.8536 52.083C96.2361 53.1495 95.4128 53.9707 94.3749 54.5638L95.3671 56.3002C96.7185 55.528 97.7939 54.4505 98.5844 53.085L96.8536 52.083ZM94.3867 54.5571C93.358 55.1266 92.1631 55.424 90.775 55.424V57.424C92.4589 57.424 93.9947 57.0601 95.3553 56.3069L94.3867 54.5571ZM90.807 56.464C92.3598 56.464 93.7703 56.1334 95.0076 55.4405L94.0304 53.6955C93.1343 54.1973 92.0701 54.464 90.807 54.464V56.464ZM95.0003 55.4446C96.2519 54.7574 97.239 53.7818 97.9483 52.5343L96.2097 51.5457C95.6817 52.4742 94.9621 53.1839 94.0377 53.6914L95.0003 55.4446ZM97.9483 52.5343C98.6616 51.2798 99.007 49.8688 99.007 48.328H97.007C97.007 49.5605 96.7337 50.6242 96.2097 51.5457L97.9483 52.5343ZM99.007 48.328C99.007 46.7697 98.6632 45.3613 97.9396 44.1387L96.2184 45.1573C96.7321 46.0253 97.007 47.0703 97.007 48.328H99.007ZM97.944 44.1463C97.2333 42.921 96.2468 41.9598 95.0003 41.2754L94.0377 43.0286C94.9672 43.5389 95.6873 44.2417 96.214 45.1497L97.944 44.1463ZM95.0076 41.2795C93.7703 40.5866 92.3598 40.256 90.807 40.256V42.256C92.0701 42.256 93.1343 42.5227 94.0304 43.0245L95.0076 41.2795ZM90.807 40.256C89.2906 40.256 87.8956 40.5892 86.6457 41.2754L87.6083 43.0286C88.5344 42.5201 89.5927 42.256 90.807 42.256V40.256ZM86.6457 41.2754C85.4021 41.9582 84.4084 42.9153 83.6775 44.1335L85.3925 45.1625C85.9416 44.2474 86.6759 43.5405 87.6083 43.0286L86.6457 41.2754ZM83.6744 44.1387C82.9508 45.3613 82.607 46.7697 82.607 48.328H84.607C84.607 47.0703 84.8819 46.0253 85.3956 45.1573L83.6744 44.1387ZM82.607 48.328C82.607 49.8688 82.9524 51.2798 83.6657 52.5343L85.4043 51.5457C84.8803 50.6242 84.607 49.5605 84.607 48.328H82.607ZM83.6731 52.547C84.4027 53.7875 85.3971 54.759 86.6457 55.4446L87.6083 53.6914C86.6809 53.1823 85.9473 52.4685 85.3969 51.533L83.6731 52.547ZM86.6457 55.4446C87.8956 56.1308 89.2906 56.464 90.807 56.464V54.464C89.5927 54.464 88.5344 54.1999 87.6083 53.6914L86.6457 55.4446ZM116.718 57H115.718V58H116.718V57ZM116.718 53.128H117.718V53.1002L117.716 53.0725L116.718 53.128ZM116.686 52.552H115.686V52.5798L115.687 52.6075L116.686 52.552ZM115.374 42.504L114.675 43.2198L114.675 43.2198L115.374 42.504ZM108.238 41.864L108.613 42.7911L108.621 42.7877L108.629 42.7842L108.238 41.864ZM105.646 43.464L104.846 44.064L105.506 44.9445L106.319 44.203L105.646 43.464ZM105.07 42.696L104.383 41.9695L103.735 42.5825L104.27 43.296L105.07 42.696ZM107.982 40.936L108.329 41.8737L108.337 41.8709L108.344 41.868L107.982 40.936ZM116.142 41.8L115.442 42.5144L115.449 42.5216L115.457 42.5286L116.142 41.8ZM117.742 57V58H118.742V57H117.742ZM107.31 56.52L106.908 57.4357L106.916 57.4391L107.31 56.52ZM105.294 54.888L104.454 55.4313L104.462 55.4427L105.294 54.888ZM105.166 50.184L106.037 50.6743L106.044 50.6629L105.166 50.184ZM107.054 48.52L107.474 49.4274L107.484 49.4229L107.054 48.52ZM117.07 47.88H118.07V46.88H117.07V47.88ZM117.07 48.744V49.744H118.07V48.744H117.07ZM106.766 49.768L106.101 49.0205L106.091 49.03L106.766 49.768ZM106.958 55.176L106.331 55.955L106.337 55.9597L106.342 55.9643L106.958 55.176ZM114.414 55.176L114.977 56.0026L114.982 55.9985L114.988 55.9944L114.414 55.176ZM116.686 52.2L117.58 51.7528L116.584 49.761L115.757 51.8286L116.686 52.2ZM117.038 52.904L117.985 53.225L118.119 52.8299L117.932 52.4568L117.038 52.904ZM114.734 55.944L114.165 55.1218L114.165 55.1218L114.734 55.944ZM117.718 57V53.128H115.718V57H117.718ZM117.716 53.0725L117.684 52.4965L115.687 52.6075L115.719 53.1835L117.716 53.0725ZM117.686 52.552V46.248H115.686V52.552H117.686ZM117.686 46.248C117.686 44.4318 117.199 42.8876 116.072 41.7882L114.675 43.2198C115.298 43.8271 115.686 44.7789 115.686 46.248H117.686ZM116.072 41.7882C114.951 40.6949 113.394 40.224 111.566 40.224V42.224C113.065 42.224 114.047 42.6064 114.675 43.2198L116.072 41.7882ZM111.566 40.224C110.231 40.224 108.986 40.4587 107.846 40.9438L108.629 42.7842C109.495 42.416 110.469 42.224 111.566 42.224V40.224ZM107.863 40.9369C106.761 41.3822 105.794 41.976 104.972 42.725L106.319 44.203C106.949 43.6293 107.709 43.1565 108.613 42.7911L107.863 40.9369ZM106.446 42.864L105.87 42.096L104.27 43.296L104.846 44.064L106.446 42.864ZM105.757 43.4225C106.436 42.7798 107.287 42.2597 108.329 41.8737L107.634 39.9983C106.373 40.4656 105.282 41.1189 104.383 41.9695L105.757 43.4225ZM108.344 41.868C109.378 41.4658 110.461 41.264 111.598 41.264V39.264C110.217 39.264 108.889 39.5102 107.619 40.004L108.344 41.868ZM111.598 41.264C113.415 41.264 114.642 41.7308 115.442 42.5144L116.842 41.0856C115.551 39.8212 113.748 39.264 111.598 39.264V41.264ZM115.457 42.5286C116.261 43.2843 116.742 44.4634 116.742 46.248H118.742C118.742 44.1073 118.156 42.321 116.827 41.0714L115.457 42.5286ZM116.742 46.248V57H118.742V46.248H116.742ZM117.742 56H116.718V58H117.742V56ZM110.542 56.096C109.381 56.096 108.445 55.9184 107.704 55.6009L106.916 57.4391C107.967 57.8896 109.185 58.096 110.542 58.096V56.096ZM107.712 55.6044C106.989 55.2869 106.476 54.8585 106.126 54.3333L104.462 55.4427C105.05 56.3255 105.881 56.9851 106.908 57.4356L107.712 55.6044ZM106.133 54.3447C105.775 53.7914 105.59 53.1611 105.59 52.424H103.59C103.59 53.5216 103.874 54.5339 104.454 55.4313L106.133 54.3447ZM105.59 52.424C105.59 51.7788 105.741 51.2019 106.037 50.6743L104.294 49.6937C103.823 50.5315 103.59 51.4479 103.59 52.424H105.59ZM106.044 50.6629C106.306 50.1826 106.754 49.7612 107.474 49.4273L106.633 47.6127C105.605 48.0894 104.794 48.7774 104.288 49.7051L106.044 50.6629ZM107.484 49.4229C108.195 49.0842 109.225 48.88 110.638 48.88V46.88C109.064 46.88 107.705 47.1025 106.624 47.6171L107.484 49.4229ZM110.638 48.88H117.07V46.88H110.638V48.88ZM116.07 47.88V48.744H118.07V47.88H116.07ZM117.07 47.744H110.638V49.744H117.07V47.744ZM110.638 47.744C108.749 47.744 107.149 48.0898 106.101 49.0206L107.43 50.5154C107.919 50.0809 108.9 49.744 110.638 49.744V47.744ZM106.091 49.03C105.129 49.9091 104.646 51.0445 104.646 52.36H106.646C106.646 51.5848 106.909 50.9922 107.441 50.506L106.091 49.03ZM104.646 52.36C104.646 53.8203 105.208 55.0515 106.331 55.955L107.585 54.397C106.958 53.8925 106.646 53.2463 106.646 52.36H104.646ZM106.342 55.9643C107.452 56.83 108.914 57.2 110.606 57.2V55.2C109.183 55.2 108.213 54.8873 107.573 54.3877L106.342 55.9643ZM110.606 57.2C112.289 57.2 113.769 56.825 114.977 56.0026L113.851 54.3494C113.053 54.8923 111.994 55.2 110.606 55.2V57.2ZM114.988 55.9944C116.169 55.1653 117.039 54.0083 117.614 52.5714L115.757 51.8286C115.308 52.9517 114.664 53.7787 113.839 54.3576L114.988 55.9944ZM115.791 52.6472L116.143 53.3512L117.932 52.4568L117.58 51.7528L115.791 52.6472ZM116.091 52.583C115.734 53.635 115.1 54.474 114.165 55.1218L115.303 56.7662C116.586 55.878 117.488 54.6903 117.985 53.225L116.091 52.583ZM114.165 55.1218C113.26 55.7481 112.075 56.096 110.542 56.096V58.096C112.38 58.096 113.989 57.6759 115.303 56.7662L114.165 55.1218ZM136.018 41.064L135.54 41.9427L135.548 41.9469L136.018 41.064ZM138.354 43.432L137.47 43.9007L137.474 43.9083L138.354 43.432ZM139.186 57V58H140.186V57H139.186ZM138.13 57H137.13V58H138.13V57ZM136.626 42.792L137.34 42.0924L137.34 42.0924L136.626 42.792ZM128.818 42.088L128.334 41.213L128.818 42.088ZM126.514 44.456L127.401 44.9179L127.401 44.9179L126.514 44.456ZM125.714 57V58H126.714V57H125.714ZM124.658 57H123.658V58H124.658V57ZM124.658 40.392V39.392H123.658V40.392H124.658ZM125.682 40.392H126.682V39.392H125.682V40.392ZM125.682 45.064L124.768 45.4701L126.682 45.064H125.682ZM125.554 44.776L124.616 44.4296L124.475 44.8108L124.64 45.1821L125.554 44.776ZM128.082 41.48L127.52 40.6525L127.513 40.6573L128.082 41.48ZM132.498 41.264C133.733 41.264 134.735 41.5048 135.54 41.9426L136.495 40.1854C135.338 39.5565 133.993 39.264 132.498 39.264V41.264ZM135.548 41.9469C136.367 42.3824 137.005 43.0238 137.47 43.9007L139.237 42.9633C138.593 41.7496 137.674 40.8122 136.487 40.1811L135.548 41.9469ZM137.474 43.9083C137.93 44.7486 138.186 45.8432 138.186 47.24H140.186C140.186 45.6075 139.887 44.1634 139.233 42.9557L137.474 43.9083ZM138.186 47.24V57H140.186V47.24H138.186ZM139.186 56H138.13V58H139.186V56ZM139.13 57V47.304H137.13V57H139.13ZM139.13 47.304C139.13 45.1606 138.587 43.3654 137.34 42.0924L135.911 43.4916C136.67 44.2666 137.13 45.4794 137.13 47.304H139.13ZM137.34 42.0924C136.103 40.8284 134.409 40.256 132.402 40.256V42.256C134.021 42.256 135.144 42.7076 135.911 43.4916L137.34 42.0924ZM132.402 40.256C130.881 40.256 129.513 40.5608 128.334 41.213L129.302 42.963C130.128 42.5059 131.149 42.256 132.402 42.256V40.256ZM128.334 41.213C127.158 41.8635 126.25 42.7972 125.627 43.9941L127.401 44.9179C127.844 44.0668 128.472 43.4218 129.302 42.963L128.334 41.213ZM125.627 43.9941C125.007 45.1846 124.714 46.5431 124.714 48.04H126.714C126.714 46.8062 126.954 45.7754 127.401 44.9179L125.627 43.9941ZM124.714 48.04V57H126.714V48.04H124.714ZM125.714 56H124.658V58H125.714V56ZM125.658 57V40.392H123.658V57H125.658ZM124.658 41.392H125.682V39.392H124.658V41.392ZM124.682 40.392V45.064H126.682V40.392H124.682ZM126.596 44.6579L126.468 44.3699L124.64 45.1821L124.768 45.4701L126.596 44.6579ZM126.492 45.1224C126.935 43.9212 127.653 42.992 128.65 42.3027L127.513 40.6573C126.164 41.5894 125.196 42.8574 124.616 44.4296L126.492 45.1224ZM128.643 42.3075C129.64 41.6312 130.906 41.264 132.498 41.264V39.264C130.591 39.264 128.913 39.7075 127.52 40.6525L128.643 42.3075ZM146.863 52.2H145.863V54.4625L147.536 52.9395L146.863 52.2ZM146.863 50.92L146.19 50.1809L145.863 50.4784V50.92H146.863ZM158.415 40.392V39.392H158.028L157.742 39.6529L158.415 40.392ZM159.823 40.392L160.502 41.1261L162.377 39.392H159.823V40.392ZM152.559 47.112L153.171 47.9033L153.206 47.8762L153.238 47.8461L152.559 47.112ZM151.855 47.656L151.244 46.8647L151.212 46.8894L151.182 46.9165L151.855 47.656ZM146.095 57H145.095V58H146.095V57ZM146.095 33.256V32.256H145.095V33.256H146.095ZM147.151 33.256H148.151V32.256H147.151V33.256ZM147.151 57V58H148.151V57H147.151ZM159.215 57L158.433 57.6234L158.734 58H159.215V57ZM151.663 47.528L150.971 46.806L150.312 47.4376L150.881 48.1514L151.663 47.528ZM152.431 46.792L153.214 46.1691L152.531 45.3116L151.739 46.07L152.431 46.792ZM160.559 57V58H162.634L161.342 56.3771L160.559 57ZM147.863 52.2V50.92H145.863V52.2H147.863ZM147.537 51.6591L159.089 41.1311L157.742 39.6529L146.19 50.1809L147.537 51.6591ZM158.415 41.392H159.823V39.392H158.415V41.392ZM159.144 39.6579L151.88 46.3779L153.238 47.8461L160.502 41.1261L159.144 39.6579ZM151.948 46.3207L151.244 46.8647L152.467 48.4473L153.171 47.9033L151.948 46.3207ZM151.182 46.9165L146.19 51.4605L147.536 52.9395L152.528 48.3955L151.182 46.9165ZM147.095 57V33.256H145.095V57H147.095ZM146.095 34.256H147.151V32.256H146.095V34.256ZM146.151 33.256V57H148.151V33.256H146.151ZM147.151 56H146.095V58H147.151V56ZM159.997 56.3766L152.445 46.9046L150.881 48.1514L158.433 57.6234L159.997 56.3766ZM152.355 48.25L153.123 47.514L151.739 46.07L150.971 46.806L152.355 48.25ZM151.649 47.4149L159.777 57.6229L161.342 56.3771L153.214 46.1691L151.649 47.4149ZM160.559 56H159.215V58H160.559V56ZM166.05 56.04L165.538 56.8988L165.547 56.9041L165.556 56.9092L166.05 56.04ZM163.138 53.032L162.262 53.514L162.268 53.525L163.138 53.032ZM163.138 44.328L162.272 43.8287L162.265 43.8398L163.138 44.328ZM166.05 41.352L165.545 40.4893L165.538 40.4932L166.05 41.352ZM174.434 41.352L174.94 40.4893L174.94 40.4893L174.434 41.352ZM177.346 44.328L178.219 43.8398L178.219 43.8398L177.346 44.328ZM177.346 53.032L178.222 53.5139L178.222 53.5139L177.346 53.032ZM174.434 56.04L174.929 56.9092L174.94 56.9027L174.434 56.04ZM173.89 55.208L174.392 56.073L174.397 56.0699L173.89 55.208ZM176.418 52.552L175.541 52.072L175.537 52.0784L175.534 52.0849L176.418 52.552ZM176.418 44.808L175.534 45.2751L175.539 45.2852L175.545 45.2951L176.418 44.808ZM173.89 42.184L173.389 43.0491L173.396 43.0533L173.89 42.184ZM166.626 42.184L166.125 41.319L166.125 41.319L166.626 42.184ZM164.066 44.808L163.196 44.3154L163.193 44.3209L164.066 44.808ZM164.066 52.552L163.189 53.032L163.192 53.0383L163.196 53.0446L164.066 52.552ZM166.626 55.208L166.112 56.0655L166.118 56.0693L166.125 56.073L166.626 55.208ZM170.242 56.096C168.842 56.096 167.617 55.7812 166.545 55.1708L165.556 56.9092C166.958 57.7068 168.528 58.096 170.242 58.096V56.096ZM166.563 55.1812C165.501 54.5482 164.652 53.6742 164.008 52.539L162.268 53.525C163.076 54.9498 164.167 56.0811 165.538 56.8988L166.563 55.1812ZM164.014 52.5501C163.4 51.4334 163.082 50.1517 163.082 48.68H161.082C161.082 50.4509 161.468 52.0706 162.262 53.5139L164.014 52.5501ZM163.082 48.68C163.082 47.1842 163.401 45.9059 164.011 44.8162L162.265 43.8398C161.467 45.2674 161.082 46.8905 161.082 48.68H163.082ZM164.005 44.8273C164.647 43.7128 165.497 42.8462 166.563 42.2108L165.538 40.4932C164.171 41.3085 163.08 42.4259 162.272 43.8287L164.005 44.8273ZM166.556 42.2147C167.627 41.5869 168.847 41.264 170.242 41.264V39.264C168.523 39.264 166.948 39.6664 165.545 40.4893L166.556 42.2147ZM170.242 41.264C171.638 41.264 172.858 41.5869 173.929 42.2147L174.94 40.4893C173.536 39.6664 171.962 39.264 170.242 39.264V41.264ZM173.929 42.2147C175.011 42.8495 175.856 43.7119 176.473 44.8162L178.219 43.8398C177.429 42.4268 176.332 41.3051 174.94 40.4893L173.929 42.2147ZM176.473 44.8162C177.083 45.9059 177.402 47.1842 177.402 48.68H179.402C179.402 46.8905 179.017 45.2674 178.219 43.8398L176.473 44.8162ZM177.402 48.68C177.402 50.1517 177.084 51.4334 176.47 52.5501L178.222 53.5139C179.016 52.0706 179.402 50.4509 179.402 48.68H177.402ZM176.47 52.5501C175.851 53.6751 175.007 54.5449 173.929 55.1773L174.94 56.9027C176.336 56.0844 177.433 54.9489 178.222 53.5139L176.47 52.5501ZM173.94 55.1708C172.867 55.7812 171.643 56.096 170.242 56.096V58.096C171.956 58.096 173.527 57.7068 174.929 56.9092L173.94 55.1708ZM170.242 57.136C171.764 57.136 173.157 56.7893 174.392 56.073L173.389 54.343C172.49 54.864 171.451 55.136 170.242 55.136V57.136ZM174.397 56.0699C175.647 55.3346 176.62 54.3116 177.302 53.0191L175.534 52.0849C175.022 53.0538 174.309 53.8014 173.383 54.3461L174.397 56.0699ZM177.296 53.032C178.004 51.7365 178.346 50.277 178.346 48.68H176.346C176.346 49.9843 176.069 51.1062 175.541 52.072L177.296 53.032ZM178.346 48.68C178.346 47.0648 178.006 45.6013 177.292 44.3209L175.545 45.2951C176.068 46.2333 176.346 47.3512 176.346 48.68H178.346ZM177.302 44.3409C176.618 43.0456 175.642 42.0297 174.385 41.3147L173.396 43.0533C174.315 43.5756 175.024 44.309 175.534 45.2751L177.302 44.3409ZM174.392 41.319C173.157 40.6027 171.764 40.256 170.242 40.256V42.256C171.451 42.256 172.49 42.528 173.389 43.049L174.392 41.319ZM170.242 40.256C168.738 40.256 167.357 40.604 166.125 41.319L167.128 43.049C168.029 42.5266 169.058 42.256 170.242 42.256V40.256ZM166.125 41.319C164.896 42.0317 163.919 43.0387 163.196 44.3154L164.937 45.3006C165.494 44.316 166.223 43.5737 167.128 43.049L166.125 41.319ZM163.193 44.3209C162.479 45.6013 162.138 47.0648 162.138 48.68H164.138C164.138 47.3512 164.416 46.2333 164.94 45.2951L163.193 44.3209ZM162.138 48.68C162.138 50.277 162.48 51.7365 163.189 53.032L164.944 52.072C164.415 51.1062 164.138 49.9843 164.138 48.68H162.138ZM163.196 53.0446C163.917 54.3186 164.89 55.3326 166.112 56.0655L167.141 54.3505C166.229 53.8034 165.495 53.0467 164.937 52.0594L163.196 53.0446ZM166.125 56.073C167.357 56.788 168.738 57.136 170.242 57.136V55.136C169.058 55.136 168.029 54.8654 167.128 54.343L166.125 56.073ZM187.35 57L186.44 57.4154L186.707 58H187.35V57ZM179.766 40.392V39.392H178.21L178.856 40.8074L179.766 40.392ZM180.918 40.392L181.829 39.981L181.564 39.392H180.918V40.392ZM188.118 56.36V57.36H189.666L189.029 55.949L188.118 56.36ZM187.638 56.36L186.727 55.9474L186.087 57.36H187.638V56.36ZM194.87 40.392V39.392H194.225L193.959 39.9794L194.87 40.392ZM195.99 40.392L196.899 40.8074L197.546 39.392H195.99V40.392ZM188.406 57V58H189.048L189.315 57.4154L188.406 57ZM188.259 56.5846L180.675 39.9766L178.856 40.8074L186.44 57.4154L188.259 56.5846ZM179.766 41.392H180.918V39.392H179.766V41.392ZM180.006 40.803L187.206 56.771L189.029 55.949L181.829 39.981L180.006 40.803ZM188.118 55.36H187.638V57.36H188.118V55.36ZM188.549 56.7726L195.781 40.8046L193.959 39.9794L186.727 55.9474L188.549 56.7726ZM194.87 41.392H195.99V39.392H194.87V41.392ZM195.08 39.9766L187.496 56.5846L189.315 57.4154L196.899 40.8074L195.08 39.9766ZM188.406 56H187.35V58H188.406V56ZM209.78 57H208.78V58H209.78V57ZM209.78 53.128H210.78V53.1002L210.779 53.0725L209.78 53.128ZM209.748 52.552H208.748V52.5798L208.75 52.6075L209.748 52.552ZM208.436 42.504L207.738 43.2198L207.738 43.2198L208.436 42.504ZM201.3 41.864L201.675 42.7911L201.683 42.7877L201.692 42.7842L201.3 41.864ZM198.708 43.464L197.908 44.064L198.569 44.9445L199.382 44.203L198.708 43.464ZM198.132 42.696L197.445 41.9695L196.797 42.5825L197.332 43.296L198.132 42.696ZM201.044 40.936L201.392 41.8737L201.399 41.8709L201.407 41.868L201.044 40.936ZM209.204 41.8L208.504 42.5144L208.512 42.5216L208.519 42.5286L209.204 41.8ZM210.804 57V58H211.804V57H210.804ZM200.372 56.52L199.97 57.4357L199.978 57.4391L200.372 56.52ZM198.356 54.888L197.517 55.4313L197.524 55.4427L198.356 54.888ZM198.228 50.184L199.1 50.6743L199.106 50.6629L198.228 50.184ZM200.116 48.52L200.537 49.4274L200.546 49.4229L200.116 48.52ZM210.132 47.88H211.132V46.88H210.132V47.88ZM210.132 48.744V49.744H211.132V48.744H210.132ZM199.828 49.768L199.164 49.0205L199.153 49.03L199.828 49.768ZM200.02 55.176L199.393 55.955L199.399 55.9597L199.405 55.9643L200.02 55.176ZM207.476 55.176L208.039 56.0026L208.045 55.9985L208.051 55.9944L207.476 55.176ZM209.748 52.2L210.643 51.7528L209.647 49.761L208.82 51.8286L209.748 52.2ZM210.1 52.904L211.047 53.225L211.181 52.8299L210.995 52.4568L210.1 52.904ZM207.796 55.944L207.227 55.1218L207.227 55.1218L207.796 55.944ZM210.78 57V53.128H208.78V57H210.78ZM210.779 53.0725L210.747 52.4965L208.75 52.6075L208.782 53.1835L210.779 53.0725ZM210.748 52.552V46.248H208.748V52.552H210.748ZM210.748 46.248C210.748 44.4318 210.261 42.8876 209.135 41.7882L207.738 43.2198C208.36 43.8271 208.748 44.7789 208.748 46.248H210.748ZM209.135 41.7882C208.014 40.6949 206.457 40.224 204.628 40.224V42.224C206.128 42.224 207.109 42.6064 207.738 43.2198L209.135 41.7882ZM204.628 40.224C203.293 40.224 202.049 40.4587 200.909 40.9438L201.692 42.7842C202.557 42.416 203.531 42.224 204.628 42.224V40.224ZM200.925 40.9369C199.824 41.3822 198.856 41.976 198.034 42.725L199.382 44.203C200.011 43.6293 200.771 43.1565 201.675 42.7911L200.925 40.9369ZM199.508 42.864L198.932 42.096L197.332 43.296L197.908 44.064L199.508 42.864ZM198.819 43.4225C199.499 42.7798 200.349 42.2597 201.392 41.8737L200.697 39.9983C199.435 40.4656 198.344 41.1189 197.445 41.9695L198.819 43.4225ZM201.407 41.868C202.441 41.4658 203.523 41.264 204.66 41.264V39.264C203.28 39.264 201.951 39.5102 200.682 40.004L201.407 41.868ZM204.66 41.264C206.478 41.264 207.705 41.7308 208.504 42.5144L209.904 41.0856C208.613 39.8212 206.811 39.264 204.66 39.264V41.264ZM208.519 42.5286C209.323 43.2843 209.804 44.4634 209.804 46.248H211.804C211.804 44.1073 211.219 42.321 209.889 41.0714L208.519 42.5286ZM209.804 46.248V57H211.804V46.248H209.804ZM210.804 56H209.78V58H210.804V56ZM203.604 56.096C202.443 56.096 201.507 55.9184 200.766 55.6009L199.978 57.4391C201.029 57.8896 202.248 58.096 203.604 58.096V56.096ZM200.774 55.6044C200.051 55.2869 199.538 54.8585 199.188 54.3333L197.524 55.4427C198.113 56.3255 198.944 56.9851 199.97 57.4356L200.774 55.6044ZM199.196 54.3447C198.838 53.7914 198.652 53.1611 198.652 52.424H196.652C196.652 53.5216 196.936 54.5339 197.517 55.4313L199.196 54.3447ZM198.652 52.424C198.652 51.7788 198.803 51.2019 199.1 50.6743L197.357 49.6937C196.885 50.5315 196.652 51.4479 196.652 52.424H198.652ZM199.106 50.6629C199.368 50.1826 199.816 49.7612 200.537 49.4273L199.696 47.6127C198.667 48.0894 197.856 48.7774 197.35 49.7051L199.106 50.6629ZM200.546 49.4229C201.257 49.0842 202.287 48.88 203.7 48.88V46.88C202.127 46.88 200.767 47.1025 199.686 47.6171L200.546 49.4229ZM203.7 48.88H210.132V46.88H203.7V48.88ZM209.132 47.88V48.744H211.132V47.88H209.132ZM210.132 47.744H203.7V49.744H210.132V47.744ZM203.7 47.744C201.812 47.744 200.211 48.0898 199.164 49.0206L200.493 50.5154C200.981 50.0809 201.962 49.744 203.7 49.744V47.744ZM199.153 49.03C198.192 49.9091 197.708 51.0445 197.708 52.36H199.708C199.708 51.5848 199.971 50.9922 200.503 50.506L199.153 49.03ZM197.708 52.36C197.708 53.8203 198.271 55.0515 199.393 55.955L200.647 54.397C200.02 53.8925 199.708 53.2463 199.708 52.36H197.708ZM199.405 55.9643C200.514 56.83 201.976 57.2 203.668 57.2V55.2C202.246 55.2 201.276 54.8873 200.636 54.3877L199.405 55.9643ZM203.668 57.2C205.352 57.2 206.831 56.825 208.039 56.0026L206.913 54.3494C206.116 54.8923 205.057 55.2 203.668 55.2V57.2ZM208.051 55.9944C209.232 55.1653 210.102 54.0083 210.677 52.5714L208.82 51.8286C208.371 52.9517 207.726 53.7787 206.902 54.3576L208.051 55.9944ZM208.854 52.6472L209.206 53.3512L210.995 52.4568L210.643 51.7528L208.854 52.6472ZM209.153 52.583C208.797 53.635 208.163 54.474 207.227 55.1218L208.365 56.7662C209.648 55.878 210.551 54.6903 211.047 53.225L209.153 52.583ZM207.227 55.1218C206.322 55.7481 205.137 56.096 203.604 56.096V58.096C205.442 58.096 207.051 57.6759 208.365 56.7662L207.227 55.1218Z" fill="#303030"/>
<path d="M18.18 39.852L2.52 33.588V31.212L18.18 24.948V27.18L3.456 32.976V31.824L18.18 37.62V39.852Z" fill="#0EA5E9"/>
<path d="M18.18 39.852L17.8086 40.7805L19.18 41.329V39.852H18.18ZM2.52 33.588H1.52V34.265L2.14861 34.5165L2.52 33.588ZM2.52 31.212L2.14861 30.2835L1.52 30.535V31.212H2.52ZM18.18 24.948H19.18V23.471L17.8086 24.0195L18.18 24.948ZM18.18 27.18L18.5463 28.1105L19.18 27.861V27.18H18.18ZM3.456 32.976H2.456V34.4443L3.82229 33.9065L3.456 32.976ZM3.456 31.824L3.82229 30.8935L2.456 30.3557V31.824H3.456ZM18.18 37.62H19.18V36.939L18.5463 36.6895L18.18 37.62ZM18.5514 38.9235L2.89139 32.6595L2.14861 34.5165L17.8086 40.7805L18.5514 38.9235ZM3.52 33.588V31.212H1.52V33.588H3.52ZM2.89139 32.1405L18.5514 25.8765L17.8086 24.0195L2.14861 30.2835L2.89139 32.1405ZM17.18 24.948V27.18H19.18V24.948H17.18ZM17.8137 26.2495L3.08971 32.0455L3.82229 33.9065L18.5463 28.1105L17.8137 26.2495ZM4.456 32.976V31.824H2.456V32.976H4.456ZM3.08971 32.7545L17.8137 38.5505L18.5463 36.6895L3.82229 30.8935L3.08971 32.7545ZM17.18 37.62V39.852H19.18V37.62H17.18Z" fill="#0EA5E9"/>
<path d="M221.688 38.852V36.62L236.412 30.824V31.976L221.688 26.18V23.948L237.348 30.212V32.588L221.688 38.852Z" fill="#0EA5E9"/>
<path d="M221.688 38.852H220.688V40.329L222.06 39.7805L221.688 38.852ZM221.688 36.62L221.322 35.6895L220.688 35.939V36.62H221.688ZM236.412 30.824H237.412V29.3557L236.046 29.8935L236.412 30.824ZM236.412 31.976L236.046 32.9065L237.412 33.4443V31.976H236.412ZM221.688 26.18H220.688V26.861L221.322 27.1105L221.688 26.18ZM221.688 23.948L222.06 23.0195L220.688 22.471V23.948H221.688ZM237.348 30.212H238.348V29.535L237.72 29.2835L237.348 30.212ZM237.348 32.588L237.72 33.5165L238.348 33.265V32.588H237.348ZM222.688 38.852V36.62H220.688V38.852H222.688ZM222.054 37.5505L236.778 31.7545L236.046 29.8935L221.322 35.6895L222.054 37.5505ZM235.412 30.824V31.976H237.412V30.824H235.412ZM236.778 31.0455L222.054 25.2495L221.322 27.1105L236.046 32.9065L236.778 31.0455ZM222.688 26.18V23.948H220.688V26.18H222.688ZM221.317 24.8765L236.977 31.1405L237.72 29.2835L222.06 23.0195L221.317 24.8765ZM236.348 30.212V32.588H238.348V30.212H236.348ZM236.977 31.6595L221.317 37.9235L222.06 39.7805L237.72 33.5165L236.977 31.6595Z" fill="#0EA5E9"/>
<defs>
<filter id="filter0_i_166_2" x="76.3212" y="10.256" width="61.3395" height="27.84" filterUnits="userSpaceOnUse" color-interpolation-filters="sRGB">
<feFlood flood-opacity="0" result="BackgroundImageFix"/>
<feBlend mode="normal" in="SourceGraphic" in2="BackgroundImageFix" result="shape"/>
<feColorMatrix in="SourceAlpha" type="matrix" values="0 0 0 0 0 0 0 0 0 0 0 0 0 0 0 0 0 0 127 0" result="hardAlpha"/>
<feOffset dy="4"/>
<feGaussianBlur stdDeviation="2"/>
<feComposite in2="hardAlpha" operator="arithmetic" k2="-1" k3="1"/>
<feColorMatrix type="matrix" values="0 0 0 0 0 0 0 0 0 0 0 0 0 0 0 0 0 0 0.25 0"/>
<feBlend mode="normal" in2="shape" result="effect1_innerShadow_166_2"/>
</filter>
<filter id="filter1_i_166_2" x="51.0977" y="33.256" width="159.706" height="34.048" filterUnits="userSpaceOnUse" color-interpolation-filters="sRGB">
<feFlood flood-opacity="0" result="BackgroundImageFix"/>
<feBlend mode="normal" in="SourceGraphic" in2="BackgroundImageFix" result="shape"/>
<feColorMatrix in="SourceAlpha" type="matrix" values="0 0 0 0 0 0 0 0 0 0 0 0 0 0 0 0 0 0 127 0" result="hardAlpha"/>
<feOffset dy="4"/>
<feGaussianBlur stdDeviation="2"/>
<feComposite in2="hardAlpha" operator="arithmetic" k2="-1" k3="1"/>
<feColorMatrix type="matrix" values="0 0 0 0 0 0 0 0 0 0 0 0 0 0 0 0 0 0 0.25 0"/>
<feBlend mode="normal" in2="shape" result="effect1_innerShadow_166_2"/>
</filter>
</defs>
</svg>
