<svg width="64" height="64" viewBox="0 0 64 64" fill="none" xmlns="http://www.w3.org/2000/svg">
<rect x="2.90918" y="2.20416" width="58" height="59.07" rx="15" transform="rotate(-0.180377 2.90918 2.20416)" fill="#0B5F75"/>
<path d="M21.2142 44.0813L21.1348 18.8815L23.3308 18.8745L40.7876 40.7077L39.6356 40.7113L39.5667 18.8234L42.1947 18.8152L42.2741 44.015L40.0781 44.0219L22.6573 22.1887L23.8092 22.185L23.8782 44.0729L21.2142 44.0813Z" fill="white"/>
<path d="M21.2142 44.0813L20.2142 44.0845L20.2173 45.0845L21.2173 45.0813L21.2142 44.0813ZM21.1348 18.8815L21.1317 17.8815L20.1317 17.8846L20.1348 18.8846L21.1348 18.8815ZM23.3308 18.8745L24.1119 18.2501L23.8104 17.873L23.3277 17.8745L23.3308 18.8745ZM40.7876 40.7077L40.7908 41.7077L42.8623 41.7012L41.5687 40.0832L40.7876 40.7077ZM39.6356 40.7113L38.6357 40.7145L38.6388 41.7145L39.6388 41.7113L39.6356 40.7113ZM39.5667 18.8234L39.5636 17.8234L38.5636 17.8266L38.5667 18.8266L39.5667 18.8234ZM42.1947 18.8152L43.1947 18.812L43.1916 17.812L42.1916 17.8152L42.1947 18.8152ZM42.2741 44.015L42.2772 45.015L43.2772 45.0119L43.2741 44.0119L42.2741 44.015ZM40.0781 44.0219L39.2964 44.6456L39.5979 45.0235L40.0812 45.0219L40.0781 44.0219ZM22.6573 22.1887L22.6541 21.1887L20.5852 21.1952L21.8756 22.8124L22.6573 22.1887ZM23.8092 22.185L24.8092 22.1819L24.8061 21.1819L23.8061 21.1851L23.8092 22.185ZM23.8782 44.0729L23.8813 45.0729L24.8813 45.0698L24.8781 44.0698L23.8782 44.0729ZM22.2142 44.0782L22.1348 18.8783L20.1348 18.8846L20.2142 44.0845L22.2142 44.0782ZM21.138 19.8814L23.334 19.8745L23.3277 17.8745L21.1317 17.8815L21.138 19.8814ZM22.5498 19.499L40.0066 41.3322L41.5687 40.0832L24.1119 18.2501L22.5498 19.499ZM40.7845 39.7077L39.6325 39.7113L39.6388 41.7113L40.7908 41.7077L40.7845 39.7077ZM40.6356 40.7082L40.5667 18.8203L38.5667 18.8266L38.6357 40.7145L40.6356 40.7082ZM39.5699 19.8234L42.1979 19.8151L42.1916 17.8152L39.5636 17.8234L39.5699 19.8234ZM41.1947 18.8183L41.2741 44.0182L43.2741 44.0119L43.1947 18.812L41.1947 18.8183ZM42.2709 43.015L40.0749 43.0219L40.0812 45.0219L42.2772 45.015L42.2709 43.015ZM40.8597 43.3982L23.4389 21.565L21.8756 22.8124L39.2964 44.6456L40.8597 43.3982ZM22.6604 23.1887L23.8124 23.185L23.8061 21.1851L22.6541 21.1887L22.6604 23.1887ZM22.8093 22.1882L22.8782 44.0761L24.8781 44.0698L24.8092 22.1819L22.8093 22.1882ZM23.875 43.0729L21.211 43.0813L21.2173 45.0813L23.8813 45.0729L23.875 43.0729Z" fill="white"/>
<rect x="1.90604" y="1.20732" width="60" height="61.07" rx="16" transform="rotate(-0.180377 1.90604 1.20732)" stroke="white" stroke-opacity="0.458824" stroke-width="2" stroke-linejoin="round"/>
</svg>
