<svg width="64" height="64" viewBox="0 0 64 64" fill="none" xmlns="http://www.w3.org/2000/svg">
<g clip-path="url(#clip0_303_2)">
<rect x="2.90921" y="2.20416" width="58" height="59.07" rx="15" transform="rotate(-0.180377 2.90921 2.20416)" fill="white"/>
<path d="M30.2141 33.0814L30.1347 7.88151L32.3307 7.8746L49.7876 29.7078L48.6356 29.7114L48.5667 7.82349L51.1946 7.81521L51.274 33.0151L49.078 33.022L31.6572 11.1887L32.8092 11.1851L32.8781 33.073L30.2141 33.0814Z" fill="#0B5F75"/>
<path d="M30.2141 33.0814L29.2141 33.0845L29.2172 34.0845L30.2172 34.0814L30.2141 33.0814ZM30.1347 7.88151L30.1316 6.88152L29.1316 6.88467L29.1347 7.88466L30.1347 7.88151ZM32.3307 7.8746L33.1118 7.25012L32.8103 6.87308L32.3276 6.8746L32.3307 7.8746ZM49.7876 29.7078L49.7907 30.7077L51.8622 30.7012L50.5686 29.0833L49.7876 29.7078ZM48.6356 29.7114L47.6356 29.7145L47.6387 30.7145L48.6387 30.7114L48.6356 29.7114ZM48.5667 7.82349L48.5635 6.82349L47.5635 6.82664L47.5667 7.82663L48.5667 7.82349ZM51.1946 7.81521L52.1946 7.81206L52.1915 6.81207L51.1915 6.81522L51.1946 7.81521ZM51.274 33.0151L51.2771 34.0151L52.2771 34.0119L52.274 33.0119L51.274 33.0151ZM49.078 33.022L48.2963 33.6457L48.5978 34.0235L49.0811 34.022L49.078 33.022ZM31.6572 11.1887L31.654 10.1887L29.5851 10.1953L30.8755 11.8124L31.6572 11.1887ZM32.8092 11.1851L33.8091 11.182L33.806 10.182L32.806 10.1851L32.8092 11.1851ZM32.8781 33.073L32.8812 34.073L33.8812 34.0698L33.8781 33.0699L32.8781 33.073ZM31.2141 33.0782L31.1347 7.87836L29.1347 7.88466L29.2141 33.0845L31.2141 33.0782ZM30.1379 8.88151L32.3339 8.87459L32.3276 6.8746L30.1316 6.88152L30.1379 8.88151ZM31.5497 8.49908L49.0065 30.3322L50.5686 29.0833L33.1118 7.25012L31.5497 8.49908ZM49.7844 28.7078L48.6324 28.7114L48.6387 30.7114L49.7907 30.7077L49.7844 28.7078ZM49.6356 29.7082L49.5666 7.82034L47.5667 7.82663L47.6356 29.7145L49.6356 29.7082ZM48.5698 8.82348L51.1978 8.81521L51.1915 6.81522L48.5635 6.82349L48.5698 8.82348ZM50.1946 7.81836L50.274 33.0182L52.274 33.0119L52.1946 7.81206L50.1946 7.81836ZM51.2708 32.0151L49.0748 32.022L49.0811 34.022L51.2771 34.0151L51.2708 32.0151ZM49.8596 32.3983L32.4388 10.565L30.8755 11.8124L48.2963 33.6457L49.8596 32.3983ZM31.6603 12.1887L32.8123 12.1851L32.806 10.1851L31.654 10.1887L31.6603 12.1887ZM31.8092 11.1883L31.8781 33.0762L33.8781 33.0699L33.8091 11.182L31.8092 11.1883ZM32.8749 32.073L30.2109 32.0814L30.2172 34.0814L32.8812 34.073L32.8749 32.073Z" fill="#0B5F75"/>
<path d="M17.1826 56.1225L17.1105 33.2266L8.25452 33.2545L8.24727 30.9505L28.6232 30.8864L28.6304 33.1903L19.7745 33.2182L19.8465 56.1141L17.1826 56.1225Z" fill="#0B5F75"/>
<path d="M17.1826 56.1225L16.1826 56.1256L16.1857 57.1256L17.1857 57.1225L17.1826 56.1225ZM17.1105 33.2266L18.1105 33.2235L18.1073 32.2235L17.1073 32.2266L17.1105 33.2266ZM8.25452 33.2545L7.25453 33.2576L7.25768 34.2576L8.25767 34.2545L8.25452 33.2545ZM8.24727 30.9505L8.24412 29.9505L7.24413 29.9537L7.24727 30.9536L8.24727 30.9505ZM28.6232 30.8864L29.6232 30.8832L29.62 29.8832L28.62 29.8864L28.6232 30.8864ZM28.6304 33.1903L28.6336 34.1903L29.6336 34.1872L29.6304 33.1872L28.6304 33.1903ZM19.7745 33.2182L19.7713 32.2182L18.7713 32.2214L18.7745 33.2214L19.7745 33.2182ZM19.8465 56.1141L19.8497 57.1141L20.8497 57.111L20.8465 56.111L19.8465 56.1141ZM18.1826 56.1193L18.1105 33.2235L16.1105 33.2298L16.1826 56.1256L18.1826 56.1193ZM17.1073 32.2266L8.25137 32.2545L8.25767 34.2545L17.1136 34.2266L17.1073 32.2266ZM9.25452 33.2513L9.24726 30.9473L7.24727 30.9536L7.25453 33.2576L9.25452 33.2513ZM8.25042 31.9505L28.6263 31.8863L28.62 29.8864L8.24412 29.9505L8.25042 31.9505ZM27.6232 30.8895L27.6304 33.1935L29.6304 33.1872L29.6232 30.8832L27.6232 30.8895ZM28.6273 32.1903L19.7713 32.2182L19.7776 34.2182L28.6336 34.1903L28.6273 32.1903ZM18.7745 33.2214L18.8466 56.1173L20.8465 56.111L20.7745 33.2151L18.7745 33.2214ZM19.8434 55.1141L17.1794 55.1225L17.1857 57.1225L19.8497 57.1141L19.8434 55.1141Z" fill="#0B5F75"/>
</g>
<rect x="1.90607" y="1.20732" width="60" height="61.07" rx="16" transform="rotate(-0.180377 1.90607 1.20732)" stroke="#0B5F75" stroke-opacity="0.458824" stroke-width="2" stroke-linejoin="round"/>
<defs>
<clipPath id="clip0_303_2">
<rect x="2.90921" y="2.20416" width="58" height="59.07" rx="15" transform="rotate(-0.180377 2.90921 2.20416)" fill="white"/>
</clipPath>
</defs>
</svg>
