<svg width="64" height="64" viewBox="0 0 64 64" fill="none" xmlns="http://www.w3.org/2000/svg">
<rect x="2.90921" y="2.20416" width="58" height="59.07" rx="15" transform="rotate(-0.180377 2.90921 2.20416)" fill="#0B5F75"/>
<g filter="url(#filter0_d_304_8)">
<path d="M29.2142 40.0814L29.1348 14.8815L31.3308 14.8746L48.7876 36.7078L47.6356 36.7114L47.5667 14.8235L50.1947 14.8152L50.2741 40.0151L48.0781 40.022L30.6573 18.1887L31.8092 18.1851L31.8782 40.073L29.2142 40.0814Z" fill="white"/>
<path d="M29.2142 40.0814L27.2142 40.0877L27.2205 42.0877L29.2205 42.0814L29.2142 40.0814ZM29.1348 14.8815L29.1285 12.8815L27.1285 12.8878L27.1348 14.8878L29.1348 14.8815ZM31.3308 14.8746L32.8929 13.6256L32.29 12.8716L31.3245 12.8746L31.3308 14.8746ZM48.7876 36.7078L48.7939 38.7077L52.937 38.6947L50.3497 35.4588L48.7876 36.7078ZM47.6356 36.7114L45.6357 36.7177L45.642 38.7177L47.6419 38.7114L47.6356 36.7114ZM47.5667 14.8235L47.5604 12.8235L45.5605 12.8298L45.5668 14.8298L47.5667 14.8235ZM50.1947 14.8152L52.1947 14.8089L52.1884 12.8089L50.1884 12.8152L50.1947 14.8152ZM50.2741 40.0151L50.2804 42.0151L52.2803 42.0088L52.2741 40.0088L50.2741 40.0151ZM48.0781 40.022L46.5147 41.2694L47.1177 42.025L48.0844 42.022L48.0781 40.022ZM30.6573 18.1887L30.651 16.1887L26.5132 16.2018L29.0939 19.4361L30.6573 18.1887ZM31.8092 18.1851L33.8092 18.1788L33.8029 16.1788L31.8029 16.1851L31.8092 18.1851ZM31.8782 40.073L31.8844 42.073L33.8844 42.0667L33.8781 40.0667L31.8782 40.073ZM31.2142 40.0751L31.1348 14.8752L27.1348 14.8878L27.2142 40.0877L31.2142 40.0751ZM29.1411 16.8815L31.3371 16.8746L31.3245 12.8746L29.1285 12.8815L29.1411 16.8815ZM29.7687 16.1236L47.2256 37.9567L50.3497 35.4588L32.8929 13.6256L29.7687 16.1236ZM48.7813 34.7078L47.6294 34.7114L47.6419 38.7114L48.7939 38.7077L48.7813 34.7078ZM49.6356 36.7051L49.5667 14.8172L45.5668 14.8298L45.6357 36.7177L49.6356 36.7051ZM47.573 16.8235L50.201 16.8152L50.1884 12.8152L47.5604 12.8235L47.573 16.8235ZM48.1947 14.8215L48.2741 40.0214L52.2741 40.0088L52.1947 14.8089L48.1947 14.8215ZM50.2678 38.0151L48.0718 38.022L48.0844 42.022L50.2804 42.0151L50.2678 38.0151ZM49.6414 38.7746L32.2206 16.9413L29.0939 19.4361L46.5147 41.2694L49.6414 38.7746ZM30.6635 20.1887L31.8155 20.1851L31.8029 16.1851L30.651 16.1887L30.6635 20.1887ZM29.8093 18.1914L29.8782 40.0793L33.8781 40.0667L33.8092 18.1788L29.8093 18.1914ZM31.8719 38.073L29.2079 38.0814L29.2205 42.0814L31.8844 42.073L31.8719 38.073Z" fill="white"/>
</g>
<path d="M18.1445 52.0377L18.0725 29.1418L9.2165 29.1696L9.20924 26.8657L29.5851 26.8015L29.5924 29.1055L20.7364 29.1334L20.8085 52.0293L18.1445 52.0377Z" fill="white"/>
<path d="M18.1445 52.0377L16.1445 52.044L16.1508 54.0439L18.1508 54.0376L18.1445 52.0377ZM18.0725 29.1418L20.0724 29.1355L20.0661 27.1355L18.0662 27.1418L18.0725 29.1418ZM9.2165 29.1696L7.21651 29.1759L7.2228 31.1759L9.22279 31.1696L9.2165 29.1696ZM9.20924 26.8657L9.20295 24.8657L7.20296 24.872L7.20925 26.872L9.20924 26.8657ZM29.5851 26.8015L31.5851 26.7952L31.5788 24.7952L29.5788 24.8015L29.5851 26.8015ZM29.5924 29.1055L29.5987 31.1055L31.5987 31.0992L31.5924 29.0992L29.5924 29.1055ZM20.7364 29.1334L20.7301 27.1334L18.7302 27.1397L18.7365 29.1397L20.7364 29.1334ZM20.8085 52.0293L20.8148 54.0293L22.8148 54.023L22.8085 52.023L20.8085 52.0293ZM20.1445 52.0314L20.0724 29.1355L16.0725 29.1481L16.1445 52.044L20.1445 52.0314ZM18.0662 27.1418L9.2102 27.1697L9.22279 31.1696L18.0788 31.1418L18.0662 27.1418ZM11.2165 29.1634L11.2092 26.8594L7.20925 26.872L7.21651 29.1759L11.2165 29.1634ZM9.21554 28.8656L29.5914 28.8015L29.5788 24.8015L9.20295 24.8657L9.21554 28.8656ZM27.5852 26.8078L27.5924 29.1118L31.5924 29.0992L31.5851 26.7952L27.5852 26.8078ZM29.5861 27.1055L20.7301 27.1334L20.7427 31.1334L29.5987 31.1055L29.5861 27.1055ZM18.7365 29.1397L18.8085 52.0356L22.8085 52.023L22.7364 29.1271L18.7365 29.1397ZM20.8022 50.0293L18.1382 50.0377L18.1508 54.0376L20.8148 54.0293L20.8022 50.0293Z" fill="white"/>
<rect x="1.90607" y="1.20732" width="60" height="61.07" rx="16" transform="rotate(-0.180377 1.90607 1.20732)" stroke="white" stroke-opacity="0.458824" stroke-width="2" stroke-linejoin="round"/>
<defs>
<filter id="filter0_d_304_8" x="25.1348" y="14.8152" width="29.1392" height="33.2662" filterUnits="userSpaceOnUse" color-interpolation-filters="sRGB">
<feFlood flood-opacity="0" result="BackgroundImageFix"/>
<feColorMatrix in="SourceAlpha" type="matrix" values="0 0 0 0 0 0 0 0 0 0 0 0 0 0 0 0 0 0 127 0" result="hardAlpha"/>
<feOffset dy="4"/>
<feGaussianBlur stdDeviation="2"/>
<feComposite in2="hardAlpha" operator="out"/>
<feColorMatrix type="matrix" values="0 0 0 0 0 0 0 0 0 0 0 0 0 0 0 0 0 0 0.25 0"/>
<feBlend mode="normal" in2="BackgroundImageFix" result="effect1_dropShadow_304_8"/>
<feBlend mode="normal" in="SourceGraphic" in2="effect1_dropShadow_304_8" result="shape"/>
</filter>
</defs>
</svg>
