<svg width="121" height="67" viewBox="0 0 121 67" fill="none" xmlns="http://www.w3.org/2000/svg">
<g filter="url(#filter0_i_301_2)">
<path d="M65.112 34V30.128L65.08 29.552V23.248C65.08 21.6053 64.6427 20.3573 63.768 19.504C62.8933 18.6507 61.624 18.224 59.96 18.224C58.744 18.224 57.6347 18.4373 56.632 18.864C55.6293 19.2693 54.7653 19.8027 54.04 20.464L53.464 19.696C54.2533 18.9493 55.224 18.3627 56.376 17.936C57.528 17.488 58.7333 17.264 59.992 17.264C61.976 17.264 63.4907 17.776 64.536 18.8C65.6027 19.8027 66.136 21.2853 66.136 23.248V34H65.112ZM58.936 34.096C57.6773 34.096 56.6 33.904 55.704 33.52C54.8293 33.136 54.1573 32.592 53.688 31.888C53.2187 31.1627 52.984 30.3413 52.984 29.424C52.984 28.6133 53.176 27.8667 53.56 27.184C53.944 26.48 54.5733 25.9253 55.448 25.52C56.344 25.0933 57.5387 24.88 59.032 24.88H65.464V25.744H59.032C57.2187 25.744 55.928 26.0853 55.16 26.768C54.4133 27.4507 54.04 28.3147 54.04 29.36C54.04 30.5333 54.4773 31.472 55.352 32.176C56.2267 32.8587 57.4427 33.2 59 33.2C60.536 33.2 61.8053 32.8587 62.808 32.176C63.8107 31.472 64.568 30.48 65.08 29.2L65.432 29.904C65.0053 31.1627 64.2373 32.176 63.128 32.944C62.0187 33.712 60.6213 34.096 58.936 34.096ZM79.292 34.096C77.756 34.096 76.3693 33.744 75.132 33.04C73.916 32.3147 72.9453 31.3227 72.22 30.064C71.516 28.784 71.164 27.3227 71.164 25.68C71.164 24.016 71.516 22.5653 72.22 21.328C72.9453 20.0693 73.916 19.0773 75.132 18.352C76.3693 17.6267 77.756 17.264 79.292 17.264C80.7853 17.264 82.1293 17.616 83.324 18.32C84.5187 19.024 85.4573 20.0053 86.14 21.264C86.844 22.5227 87.196 23.9947 87.196 25.68C87.196 27.344 86.844 28.816 86.14 30.096C85.4573 31.376 84.5187 32.368 83.324 33.072C82.1293 33.7547 80.7853 34.096 79.292 34.096ZM79.324 33.136C80.6893 33.136 81.9053 32.8267 82.972 32.208C84.0387 31.568 84.8813 30.6827 85.5 29.552C86.1187 28.4213 86.428 27.1307 86.428 25.68C86.428 24.208 86.1187 22.9173 85.5 21.808C84.8813 20.6773 84.0387 19.8027 82.972 19.184C81.9053 18.5653 80.6893 18.256 79.324 18.256C77.98 18.256 76.7747 18.5653 75.708 19.184C74.6413 19.8027 73.788 20.6773 73.148 21.808C72.5293 22.9173 72.22 24.208 72.22 25.68C72.22 27.1307 72.5293 28.4213 73.148 29.552C73.788 30.6827 74.6413 31.568 75.708 32.208C76.7747 32.8267 77.98 33.136 79.324 33.136ZM86.46 34V28.176L86.748 25.648L86.428 23.12V10.256H87.484V34H86.46ZM94.5833 34V17.392H95.6393V34H94.5833ZM95.0953 13.04C94.8179 13.04 94.5726 12.9333 94.3593 12.72C94.1459 12.5067 94.0393 12.272 94.0393 12.016C94.0393 11.7173 94.1459 11.472 94.3593 11.28C94.5726 11.0667 94.8179 10.96 95.0953 10.96C95.3939 10.96 95.6393 11.0667 95.8313 11.28C96.0446 11.472 96.1513 11.7067 96.1513 11.984C96.1513 12.2613 96.0446 12.5067 95.8313 12.72C95.6393 12.9333 95.3939 13.04 95.0953 13.04ZM113.3 34V30.128L113.268 29.552V23.248C113.268 21.6053 112.83 20.3573 111.956 19.504C111.081 18.6507 109.812 18.224 108.148 18.224C106.932 18.224 105.822 18.4373 104.82 18.864C103.817 19.2693 102.953 19.8027 102.228 20.464L101.652 19.696C102.441 18.9493 103.412 18.3627 104.564 17.936C105.716 17.488 106.921 17.264 108.18 17.264C110.164 17.264 111.678 17.776 112.724 18.8C113.79 19.8027 114.324 21.2853 114.324 23.248V34H113.3ZM107.124 34.096C105.865 34.096 104.788 33.904 103.891 33.52C103.017 33.136 102.345 32.592 101.876 31.888C101.406 31.1627 101.172 30.3413 101.172 29.424C101.172 28.6133 101.364 27.8667 101.748 27.184C102.132 26.48 102.761 25.9253 103.636 25.52C104.532 25.0933 105.726 24.88 107.22 24.88H113.652V25.744H107.22C105.406 25.744 104.116 26.0853 103.348 26.768C102.601 27.4507 102.228 28.3147 102.228 29.36C102.228 30.5333 102.665 31.472 103.54 32.176C104.414 32.8587 105.63 33.2 107.188 33.2C108.724 33.2 109.993 32.8587 110.996 32.176C111.998 31.472 112.756 30.48 113.268 29.2L113.62 29.904C113.193 31.1627 112.425 32.176 111.316 32.944C110.206 33.712 108.809 34.096 107.124 34.096Z" fill="#303030"/>
</g>
<path d="M65.112 34H64.112V35H65.112V34ZM65.112 30.128H66.112V30.1002L66.1105 30.0725L65.112 30.128ZM65.08 29.552H64.08V29.5798L64.0815 29.6075L65.08 29.552ZM63.768 19.504L63.0697 20.2198L63.0697 20.2198L63.768 19.504ZM56.632 18.864L57.0068 19.7911L57.0152 19.7877L57.0236 19.7842L56.632 18.864ZM54.04 20.464L53.24 21.064L53.9004 21.9445L54.7138 21.203L54.04 20.464ZM53.464 19.696L52.7768 18.9695L52.1288 19.5825L52.664 20.296L53.464 19.696ZM56.376 17.936L56.7233 18.8737L56.7309 18.8709L56.7384 18.868L56.376 17.936ZM64.536 18.8L63.8362 19.5144L63.8436 19.5216L63.8511 19.5286L64.536 18.8ZM66.136 34V35H67.136V34H66.136ZM55.704 33.52L55.302 34.4357L55.3101 34.4391L55.704 33.52ZM53.688 31.888L52.8484 32.4313L52.8559 32.4427L53.688 31.888ZM53.56 27.184L54.4316 27.6743L54.4379 27.6629L53.56 27.184ZM55.448 25.52L55.8685 26.4274L55.8779 26.4229L55.448 25.52ZM65.464 24.88H66.464V23.88H65.464V24.88ZM65.464 25.744V26.744H66.464V25.744H65.464ZM55.16 26.768L54.4956 26.0205L54.4852 26.03L55.16 26.768ZM55.352 32.176L54.725 32.955L54.7308 32.9597L54.7367 32.9643L55.352 32.176ZM62.808 32.176L63.3708 33.0026L63.3767 32.9985L63.3826 32.9944L62.808 32.176ZM65.08 29.2L65.9744 28.7528L64.9786 26.761L64.1515 28.8286L65.08 29.2ZM65.432 29.904L66.3791 30.225L66.513 29.8299L66.3264 29.4568L65.432 29.904ZM63.128 32.944L62.5588 32.1218L62.5588 32.1218L63.128 32.944ZM66.112 34V30.128H64.112V34H66.112ZM66.1105 30.0725L66.0785 29.4965L64.0815 29.6075L64.1135 30.1835L66.1105 30.0725ZM66.08 29.552V23.248H64.08V29.552H66.08ZM66.08 23.248C66.08 21.4318 65.5932 19.8876 64.4663 18.7882L63.0697 20.2198C63.6922 20.8271 64.08 21.7789 64.08 23.248H66.08ZM64.4663 18.7882C63.3457 17.6949 61.7885 17.224 59.96 17.224V19.224C61.4595 19.224 62.441 19.6064 63.0697 20.2198L64.4663 18.7882ZM59.96 17.224C58.6251 17.224 57.3805 17.4587 56.2404 17.9438L57.0236 19.7842C57.8888 19.416 58.8629 19.224 59.96 19.224V17.224ZM56.2572 17.9369C55.1557 18.3822 54.1878 18.976 53.3662 19.725L54.7138 21.203C55.3429 20.6293 56.103 20.1565 57.0068 19.7911L56.2572 17.9369ZM54.84 19.864L54.264 19.096L52.664 20.296L53.24 21.064L54.84 19.864ZM54.1512 20.4225C54.8306 19.7798 55.6812 19.2597 56.7233 18.8737L56.0287 16.9983C54.7668 17.4656 53.676 18.1189 52.7768 18.9695L54.1512 20.4225ZM56.7384 18.868C57.7727 18.4658 58.855 18.264 59.992 18.264V16.264C58.6117 16.264 57.2833 16.5102 56.0136 17.004L56.7384 18.868ZM59.992 18.264C61.8097 18.264 63.0363 18.7308 63.8362 19.5144L65.2358 18.0856C63.945 16.8212 62.1423 16.264 59.992 16.264V18.264ZM63.8511 19.5286C64.655 20.2843 65.136 21.4634 65.136 23.248H67.136C67.136 21.1073 66.5503 19.321 65.2209 18.0714L63.8511 19.5286ZM65.136 23.248V34H67.136V23.248H65.136ZM66.136 33H65.112V35H66.136V33ZM58.936 33.096C57.775 33.096 56.8389 32.9184 56.0979 32.6009L55.3101 34.4391C56.3611 34.8896 57.5797 35.096 58.936 35.096V33.096ZM56.106 32.6044C55.383 32.2869 54.8702 31.8585 54.5201 31.3333L52.8559 32.4427C53.4445 33.3255 54.2757 33.9851 55.302 34.4356L56.106 32.6044ZM54.5276 31.3447C54.1695 30.7914 53.984 30.1611 53.984 29.424H51.984C51.984 30.5216 52.2678 31.5339 52.8484 32.4313L54.5276 31.3447ZM53.984 29.424C53.984 28.7788 54.1348 28.2019 54.4316 27.6743L52.6884 26.6937C52.2172 27.5315 51.984 28.4479 51.984 29.424H53.984ZM54.4379 27.6629C54.6998 27.1826 55.1479 26.7612 55.8685 26.4273L55.0275 24.6127C53.9988 25.0894 53.1882 25.7774 52.6821 26.7051L54.4379 27.6629ZM55.8779 26.4229C56.5891 26.0842 57.619 25.88 59.032 25.88V23.88C57.4584 23.88 56.0989 24.1025 55.0181 24.6171L55.8779 26.4229ZM59.032 25.88H65.464V23.88H59.032V25.88ZM64.464 24.88V25.744H66.464V24.88H64.464ZM65.464 24.744H59.032V26.744H65.464V24.744ZM59.032 24.744C57.1435 24.744 55.5428 25.0898 54.4956 26.0206L55.8244 27.5154C56.3132 27.0809 57.2938 26.744 59.032 26.744V24.744ZM54.4852 26.03C53.5237 26.9091 53.04 28.0445 53.04 29.36H55.04C55.04 28.5848 55.303 27.9922 55.8348 27.506L54.4852 26.03ZM53.04 29.36C53.04 30.8203 53.6025 32.0515 54.725 32.955L55.979 31.397C55.3522 30.8925 55.04 30.2463 55.04 29.36H53.04ZM54.7367 32.9643C55.8459 33.83 57.3079 34.2 59 34.2V32.2C57.5775 32.2 56.6075 31.8873 55.9673 31.3877L54.7367 32.9643ZM59 34.2C60.6833 34.2 62.1629 33.825 63.3708 33.0026L62.2452 31.3494C61.4478 31.8923 60.3887 32.2 59 32.2V34.2ZM63.3826 32.9944C64.5635 32.1653 65.4337 31.0083 66.0085 29.5714L64.1515 28.8286C63.7023 29.9517 63.0578 30.7787 62.2334 31.3576L63.3826 32.9944ZM64.1856 29.6472L64.5376 30.3512L66.3264 29.4568L65.9744 28.7528L64.1856 29.6472ZM64.4849 29.583C64.1283 30.635 63.4945 31.474 62.5588 32.1218L63.6972 33.7662C64.9801 32.878 65.8824 31.6903 66.3791 30.225L64.4849 29.583ZM62.5588 32.1218C61.6542 32.7481 60.4689 33.096 58.936 33.096V35.096C60.7738 35.096 62.3831 34.6759 63.6972 33.7662L62.5588 32.1218ZM75.132 33.04L74.6197 33.8988L74.6285 33.9041L74.6375 33.9092L75.132 33.04ZM72.22 30.064L71.3438 30.5459L71.3486 30.5547L71.3536 30.5633L72.22 30.064ZM72.22 21.328L71.3536 20.8287L71.3508 20.8335L72.22 21.328ZM75.132 18.352L74.6263 17.4893L74.6197 17.4932L75.132 18.352ZM83.324 18.32L82.8163 19.1815L82.8163 19.1815L83.324 18.32ZM86.14 21.264L85.2609 21.7408L85.2672 21.7522L86.14 21.264ZM86.14 30.096L85.2637 29.614L85.2576 29.6254L86.14 30.096ZM83.324 33.072L83.8202 33.9403L83.8317 33.9335L83.324 33.072ZM82.972 32.208L83.4737 33.073L83.4801 33.0693L83.4865 33.0655L82.972 32.208ZM85.5 29.552L84.6227 29.072L84.6227 29.072L85.5 29.552ZM85.5 21.808L84.6227 22.288L84.6266 22.2951L85.5 21.808ZM82.972 19.184L83.4737 18.319L83.4737 18.319L82.972 19.184ZM75.708 19.184L75.2063 18.319L75.2063 18.319L75.708 19.184ZM73.148 21.808L72.2777 21.3154L72.2746 21.3209L73.148 21.808ZM73.148 29.552L72.2707 30.032L72.2742 30.0383L72.2777 30.0446L73.148 29.552ZM75.708 32.208L75.1935 33.0655L75.1999 33.0693L75.2063 33.073L75.708 32.208ZM86.46 34H85.46V35H86.46V34ZM86.46 28.176L85.4664 28.0628L85.46 28.1192V28.176H86.46ZM86.748 25.648L87.7416 25.7612L87.7552 25.6417L87.7401 25.5224L86.748 25.648ZM86.428 23.12H85.428V23.183L85.4359 23.2456L86.428 23.12ZM86.428 10.256V9.256H85.428V10.256H86.428ZM87.484 10.256H88.484V9.256H87.484V10.256ZM87.484 34V35H88.484V34H87.484ZM79.292 33.096C77.9153 33.096 76.7013 32.7824 75.6265 32.1708L74.6375 33.9092C76.0373 34.7056 77.5967 35.096 79.292 35.096V33.096ZM75.6443 32.1812C74.5791 31.5458 73.7287 30.6792 73.0864 29.5647L71.3536 30.5633C72.162 31.9661 73.2529 33.0835 74.6197 33.8988L75.6443 32.1812ZM73.0962 29.5821C72.4831 28.4673 72.164 27.1755 72.164 25.68H70.164C70.164 27.4698 70.5489 29.1007 71.3438 30.5459L73.0962 29.5821ZM72.164 25.68C72.164 24.1599 72.4844 22.8854 73.0892 21.8225L71.3508 20.8335C70.5476 22.2452 70.164 23.8721 70.164 25.68H72.164ZM73.0864 21.8273C73.7287 20.7128 74.5791 19.8462 75.6443 19.2108L74.6197 17.4932C73.2529 18.3085 72.162 19.4259 71.3536 20.8287L73.0864 21.8273ZM75.6377 19.2147C76.7108 18.5857 77.9207 18.264 79.292 18.264V16.264C77.5913 16.264 76.0279 16.6677 74.6263 17.4893L75.6377 19.2147ZM79.292 18.264C80.621 18.264 81.7873 18.5751 82.8163 19.1815L83.8317 17.4585C82.4714 16.6569 80.9497 16.264 79.292 16.264V18.264ZM82.8163 19.1815C83.8493 19.7903 84.6619 20.6362 85.261 21.7408L87.019 20.7872C86.2528 19.3744 85.188 18.2577 83.8317 17.4585L82.8163 19.1815ZM85.2672 21.7522C85.8747 22.8382 86.196 24.1366 86.196 25.68H88.196C88.196 23.8528 87.8133 22.2071 87.0128 20.7758L85.2672 21.7522ZM86.196 25.68C86.196 27.1992 85.8759 28.5012 85.2638 29.6141L87.0162 30.5779C87.8121 29.1308 88.196 27.4888 88.196 25.68H86.196ZM85.2576 29.6254C84.6574 30.751 83.845 31.6043 82.8163 32.2105L83.8317 33.9335C85.1923 33.1317 86.2573 32.001 87.0224 30.5666L85.2576 29.6254ZM82.8279 32.2038C81.797 32.7928 80.6266 33.096 79.292 33.096V35.096C80.9441 35.096 82.4616 34.7165 83.8201 33.9402L82.8279 32.2038ZM79.324 34.136C80.8462 34.136 82.2387 33.7893 83.4737 33.073L82.4703 31.343C81.572 31.864 80.5325 32.136 79.324 32.136V34.136ZM83.4865 33.0655C84.7111 32.3307 85.6766 31.3126 86.3773 30.032L84.6227 29.072C84.0861 30.0527 83.3662 30.8053 82.4575 31.3505L83.4865 33.0655ZM86.3773 30.032C87.0861 28.7365 87.428 27.277 87.428 25.68H85.428C85.428 26.9843 85.1512 28.1062 84.6227 29.072L86.3773 30.032ZM87.428 25.68C87.428 24.0648 87.0874 22.6013 86.3734 21.3209L84.6266 22.2951C85.1499 23.2333 85.428 24.3512 85.428 25.68H87.428ZM86.3773 21.328C85.6751 20.0447 84.7057 19.0335 83.4737 18.319L82.4703 20.049C83.3716 20.5718 84.0876 21.31 84.6227 22.288L86.3773 21.328ZM83.4737 18.319C82.2387 17.6027 80.8462 17.256 79.324 17.256V19.256C80.5325 19.256 81.572 19.528 82.4703 20.049L83.4737 18.319ZM79.324 17.256C77.8201 17.256 76.4389 17.604 75.2063 18.319L76.2097 20.049C77.1104 19.5266 78.1399 19.256 79.324 19.256V17.256ZM75.2063 18.319C73.9775 19.0317 73.0004 20.0387 72.2777 21.3154L74.0183 22.3006C74.5756 21.316 75.3052 20.5737 76.2097 20.049L75.2063 18.319ZM72.2746 21.3209C71.5606 22.6013 71.22 24.0648 71.22 25.68H73.22C73.22 24.3512 73.4981 23.2333 74.0214 22.2951L72.2746 21.3209ZM71.22 25.68C71.22 27.277 71.5619 28.7365 72.2707 30.032L74.0253 29.072C73.4968 28.1062 73.22 26.9843 73.22 25.68H71.22ZM72.2777 30.0446C72.9989 31.3186 73.972 32.3326 75.1935 33.0655L76.2225 31.3505C75.3106 30.8034 74.5771 30.0467 74.0183 29.0594L72.2777 30.0446ZM75.2063 33.073C76.4389 33.788 77.8201 34.136 79.324 34.136V32.136C78.1399 32.136 77.1104 31.8654 76.2097 31.343L75.2063 33.073ZM87.46 34V28.176H85.46V34H87.46ZM87.4536 28.2892L87.7416 25.7612L85.7544 25.5348L85.4664 28.0628L87.4536 28.2892ZM87.7401 25.5224L87.4201 22.9944L85.4359 23.2456L85.7559 25.7736L87.7401 25.5224ZM87.428 23.12V10.256H85.428V23.12H87.428ZM86.428 11.256H87.484V9.256H86.428V11.256ZM86.484 10.256V34H88.484V10.256H86.484ZM87.484 33H86.46V35H87.484V33ZM94.5833 34H93.5833V35H94.5833V34ZM94.5833 17.392V16.392H93.5833V17.392H94.5833ZM95.6393 17.392H96.6393V16.392H95.6393V17.392ZM95.6393 34V35H96.6393V34H95.6393ZM94.3593 12.72L93.6521 13.4271L93.6521 13.4271L94.3593 12.72ZM94.3593 11.28L95.0282 12.0233L95.0478 12.0057L95.0664 11.9871L94.3593 11.28ZM95.8313 11.28L95.088 11.949L95.1232 11.9881L95.1623 12.0233L95.8313 11.28ZM95.8313 12.72L95.1241 12.0129L95.1055 12.0315L95.088 12.051L95.8313 12.72ZM95.5833 34V17.392H93.5833V34H95.5833ZM94.5833 18.392H95.6393V16.392H94.5833V18.392ZM94.6393 17.392V34H96.6393V17.392H94.6393ZM95.6393 33H94.5833V35H95.6393V33ZM95.0953 12.04C95.0904 12.04 95.0902 12.0396 95.0932 12.0402C95.0963 12.0408 95.0996 12.0419 95.102 12.0429C95.1042 12.0439 95.1028 12.0436 95.0974 12.0399C95.0919 12.036 95.0814 12.0279 95.0664 12.0129L93.6521 13.4271C94.0349 13.8098 94.5281 14.04 95.0953 14.04V12.04ZM95.0664 12.0129C95.0303 11.9768 95.0257 11.9615 95.0296 11.9702C95.0315 11.9744 95.0343 11.9818 95.0364 11.9916C95.0386 12.0014 95.0393 12.01 95.0393 12.016H93.0393C93.0393 12.5842 93.2873 13.0623 93.6521 13.4271L95.0664 12.0129ZM95.0393 12.016C95.0393 12.0084 95.0396 12.003 95.0399 11.9996C95.0402 11.9961 95.0406 11.9945 95.0406 11.9944C95.0406 11.9944 95.0403 11.9956 95.0396 11.998C95.0389 12.0003 95.0378 12.0033 95.0363 12.0067C95.0331 12.0141 95.0294 12.0203 95.0263 12.0245C95.0233 12.0286 95.023 12.028 95.0282 12.0233L93.6903 10.5367C93.2567 10.9269 93.0393 11.4469 93.0393 12.016H95.0393ZM95.0664 11.9871C95.0814 11.9721 95.0919 11.964 95.0974 11.9601C95.1028 11.9564 95.1042 11.9561 95.102 11.9571C95.0996 11.9581 95.0963 11.9592 95.0932 11.9598C95.0902 11.9604 95.0904 11.96 95.0953 11.96V9.96C94.5281 9.96 94.0349 10.1902 93.6521 10.5729L95.0664 11.9871ZM95.0953 11.96C95.1028 11.96 95.1082 11.9603 95.1117 11.9607C95.1151 11.961 95.1168 11.9613 95.1168 11.9613C95.1169 11.9613 95.1156 11.9611 95.1133 11.9604C95.1109 11.9596 95.108 11.9586 95.1045 11.9571C95.0972 11.9539 95.091 11.9501 95.0867 11.947C95.0827 11.9441 95.0833 11.9438 95.088 11.949L96.5745 10.611C96.1843 10.1775 95.6643 9.96 95.0953 9.96V11.96ZM95.1623 12.0233C95.171 12.0312 95.173 12.0343 95.1713 12.032C95.1693 12.0294 95.1652 12.0232 95.1609 12.0138C95.1566 12.0043 95.1538 11.9952 95.1523 11.988C95.1508 11.981 95.1513 11.9791 95.1513 11.984H97.1513C97.1513 11.4121 96.9159 10.9108 96.5002 10.5367L95.1623 12.0233ZM95.1513 11.984C95.1513 11.9888 95.1508 11.9891 95.1514 11.986C95.1521 11.9829 95.1532 11.9796 95.1542 11.9773C95.1552 11.975 95.1548 11.9765 95.1511 11.9818C95.1473 11.9873 95.1391 11.9979 95.1241 12.0129L96.5384 13.4271C96.9211 13.0444 97.1513 12.5512 97.1513 11.984H95.1513ZM95.088 12.051C95.0833 12.0562 95.0827 12.0559 95.0867 12.053C95.091 12.0499 95.0972 12.0461 95.1045 12.0429C95.108 12.0414 95.1109 12.0404 95.1133 12.0396C95.1156 12.0389 95.1169 12.0387 95.1168 12.0387C95.1168 12.0387 95.1151 12.039 95.1117 12.0393C95.1082 12.0397 95.1028 12.04 95.0953 12.04V14.04C95.6643 14.04 96.1843 13.8225 96.5745 13.389L95.088 12.051ZM113.3 34H112.3V35H113.3V34ZM113.3 30.128H114.3V30.1002L114.298 30.0725L113.3 30.128ZM113.268 29.552H112.268V29.5798L112.269 29.6075L113.268 29.552ZM111.956 19.504L111.257 20.2198L111.257 20.2198L111.956 19.504ZM104.82 18.864L105.194 19.7911L105.203 19.7877L105.211 19.7842L104.82 18.864ZM102.228 20.464L101.427 21.064L102.088 21.9445L102.901 21.203L102.228 20.464ZM101.652 19.696L100.964 18.9695L100.316 19.5825L100.851 20.296L101.652 19.696ZM104.564 17.936L104.911 18.8737L104.918 18.8709L104.926 18.868L104.564 17.936ZM112.724 18.8L112.024 19.5144L112.031 19.5216L112.039 19.5286L112.724 18.8ZM114.324 34V35H115.324V34H114.324ZM103.891 33.52L103.489 34.4357L103.498 34.4391L103.891 33.52ZM101.876 31.888L101.036 32.4313L101.043 32.4427L101.876 31.888ZM101.748 27.184L102.619 27.6743L102.625 27.6629L101.748 27.184ZM103.636 25.52L104.056 26.4274L104.065 26.4229L103.636 25.52ZM113.652 24.88H114.652V23.88H113.652V24.88ZM113.652 25.744V26.744H114.652V25.744H113.652ZM103.348 26.768L102.683 26.0205L102.673 26.03L103.348 26.768ZM103.54 32.176L102.912 32.955L102.918 32.9597L102.924 32.9643L103.54 32.176ZM110.996 32.176L111.558 33.0026L111.564 32.9985L111.57 32.9944L110.996 32.176ZM113.268 29.2L114.162 28.7528L113.166 26.761L112.339 28.8286L113.268 29.2ZM113.62 29.904L114.567 30.225L114.701 29.8299L114.514 29.4568L113.62 29.904ZM111.316 32.944L110.746 32.1218L110.746 32.1218L111.316 32.944ZM114.3 34V30.128H112.3V34H114.3ZM114.298 30.0725L114.266 29.4965L112.269 29.6075L112.301 30.1835L114.298 30.0725ZM114.268 29.552V23.248H112.268V29.552H114.268ZM114.268 23.248C114.268 21.4318 113.781 19.8876 112.654 18.7882L111.257 20.2198C111.88 20.8271 112.268 21.7789 112.268 23.248H114.268ZM112.654 18.7882C111.533 17.6949 109.976 17.224 108.148 17.224V19.224C109.647 19.224 110.628 19.6064 111.257 20.2198L112.654 18.7882ZM108.148 17.224C106.813 17.224 105.568 17.4587 104.428 17.9438L105.211 19.7842C106.076 19.416 107.05 19.224 108.148 19.224V17.224ZM104.445 17.9369C103.343 18.3822 102.375 18.976 101.554 19.725L102.901 21.203C103.53 20.6293 104.29 20.1565 105.194 19.7911L104.445 17.9369ZM103.028 19.864L102.452 19.096L100.851 20.296L101.427 21.064L103.028 19.864ZM102.339 20.4225C103.018 19.7798 103.869 19.2597 104.911 18.8737L104.216 16.9983C102.954 17.4656 101.864 18.1189 100.964 18.9695L102.339 20.4225ZM104.926 18.868C105.96 18.4658 107.043 18.264 108.18 18.264V16.264C106.799 16.264 105.471 16.5102 104.201 17.004L104.926 18.868ZM108.18 18.264C109.997 18.264 111.224 18.7308 112.024 19.5144L113.423 18.0856C112.133 16.8212 110.33 16.264 108.18 16.264V18.264ZM112.039 19.5286C112.843 20.2843 113.324 21.4634 113.324 23.248H115.324C115.324 21.1073 114.738 19.321 113.408 18.0714L112.039 19.5286ZM113.324 23.248V34H115.324V23.248H113.324ZM114.324 33H113.3V35H114.324V33ZM107.124 33.096C105.963 33.096 105.026 32.9184 104.285 32.6009L103.498 34.4391C104.549 34.8896 105.767 35.096 107.124 35.096V33.096ZM104.293 32.6044C103.57 32.2869 103.058 31.8585 102.708 31.3333L101.043 32.4427C101.632 33.3255 102.463 33.9851 103.49 34.4356L104.293 32.6044ZM102.715 31.3447C102.357 30.7914 102.172 30.1611 102.172 29.424H100.172C100.172 30.5216 100.455 31.5339 101.036 32.4313L102.715 31.3447ZM102.172 29.424C102.172 28.7788 102.322 28.2019 102.619 27.6743L100.876 26.6937C100.405 27.5315 100.172 28.4479 100.172 29.424H102.172ZM102.625 27.6629C102.887 27.1826 103.335 26.7612 104.056 26.4273L103.215 24.6127C102.186 25.0894 101.376 25.7774 100.87 26.7051L102.625 27.6629ZM104.065 26.4229C104.777 26.0842 105.806 25.88 107.22 25.88V23.88C105.646 23.88 104.286 24.1025 103.206 24.6171L104.065 26.4229ZM107.22 25.88H113.652V23.88H107.22V25.88ZM112.652 24.88V25.744H114.652V24.88H112.652ZM113.652 24.744H107.22V26.744H113.652V24.744ZM107.22 24.744C105.331 24.744 103.73 25.0898 102.683 26.0206L104.012 27.5154C104.501 27.0809 105.481 26.744 107.22 26.744V24.744ZM102.673 26.03C101.711 26.9091 101.228 28.0445 101.228 29.36H103.228C103.228 28.5848 103.49 27.9922 104.022 27.506L102.673 26.03ZM101.228 29.36C101.228 30.8203 101.79 32.0515 102.912 32.955L104.167 31.397C103.54 30.8925 103.228 30.2463 103.228 29.36H101.228ZM102.924 32.9643C104.033 33.83 105.495 34.2 107.188 34.2V32.2C105.765 32.2 104.795 31.8873 104.155 31.3877L102.924 32.9643ZM107.188 34.2C108.871 34.2 110.35 33.825 111.558 33.0026L110.433 31.3494C109.635 31.8923 108.576 32.2 107.188 32.2V34.2ZM111.57 32.9944C112.751 32.1653 113.621 31.0083 114.196 29.5714L112.339 28.8286C111.89 29.9517 111.245 30.7787 110.421 31.3576L111.57 32.9944ZM112.373 29.6472L112.725 30.3512L114.514 29.4568L114.162 28.7528L112.373 29.6472ZM112.672 29.583C112.316 30.635 111.682 31.474 110.746 32.1218L111.885 33.7662C113.168 32.878 114.07 31.6903 114.567 30.225L112.672 29.583ZM110.746 32.1218C109.842 32.7481 108.656 33.096 107.124 33.096V35.096C108.961 35.096 110.571 34.6759 111.885 33.7662L110.746 32.1218Z" fill="#303030"/>
<path d="M22.104 35V9.8H24.3L41.688 31.688H40.536V9.8H43.164V35H40.968L23.616 13.112H24.768V35H22.104Z" fill="#0B5F75"/>
<path d="M22.104 35H21.104V36H22.104V35ZM22.104 9.8V8.8H21.104V9.8H22.104ZM24.3 9.8L25.083 9.17798L24.7827 8.8H24.3V9.8ZM41.688 31.688V32.688H43.7595L42.471 31.066L41.688 31.688ZM40.536 31.688H39.536V32.688H40.536V31.688ZM40.536 9.8V8.8H39.536V9.8H40.536ZM43.164 9.8H44.164V8.8H43.164V9.8ZM43.164 35V36H44.164V35H43.164ZM40.968 35L40.1844 35.6212L40.4846 36H40.968V35ZM23.616 13.112V12.112H21.5471L22.8324 13.7332L23.616 13.112ZM24.768 13.112H25.768V12.112H24.768V13.112ZM24.768 35V36H25.768V35H24.768ZM23.104 35V9.8H21.104V35H23.104ZM22.104 10.8H24.3V8.8H22.104V10.8ZM23.517 10.422L40.905 32.31L42.471 31.066L25.083 9.17798L23.517 10.422ZM41.688 30.688H40.536V32.688H41.688V30.688ZM41.536 31.688V9.8H39.536V31.688H41.536ZM40.536 10.8H43.164V8.8H40.536V10.8ZM42.164 9.8V35H44.164V9.8H42.164ZM43.164 34H40.968V36H43.164V34ZM41.7516 34.3788L24.3996 12.4908L22.8324 13.7332L40.1844 35.6212L41.7516 34.3788ZM23.616 14.112H24.768V12.112H23.616V14.112ZM23.768 13.112V35H25.768V13.112H23.768ZM24.768 34H22.104V36H24.768V34Z" fill="#0B5F75"/>
<path d="M9 58V35.104H0.144V32.8H20.52V35.104H11.664V58H9Z" fill="#0B5F75"/>
<path d="M9 58H8V59H9V58ZM9 35.104H10V34.104H9V35.104ZM0.144 35.104H-0.856V36.104H0.144V35.104ZM0.144 32.8V31.8H-0.856V32.8H0.144ZM20.52 32.8H21.52V31.8H20.52V32.8ZM20.52 35.104V36.104H21.52V35.104H20.52ZM11.664 35.104V34.104H10.664V35.104H11.664ZM11.664 58V59H12.664V58H11.664ZM10 58V35.104H8V58H10ZM9 34.104H0.144V36.104H9V34.104ZM1.144 35.104V32.8H-0.856V35.104H1.144ZM0.144 33.8H20.52V31.8H0.144V33.8ZM19.52 32.8V35.104H21.52V32.8H19.52ZM20.52 34.104H11.664V36.104H20.52V34.104ZM10.664 35.104V58H12.664V35.104H10.664ZM11.664 57H9V59H11.664V57Z" fill="#0B5F75"/>
<g filter="url(#filter1_i_301_2)">
<path d="M28.552 58.096C27.1867 58.096 25.9067 57.8933 24.712 57.488C23.5173 57.0613 22.6107 56.528 21.992 55.888L22.504 55.056C23.1227 55.6107 23.9653 56.1013 25.032 56.528C26.0987 56.9547 27.2827 57.168 28.584 57.168C30.44 57.168 31.7733 56.848 32.584 56.208C33.416 55.568 33.832 54.736 33.832 53.712C33.832 52.9653 33.6293 52.3787 33.224 51.952C32.8187 51.5253 32.2853 51.1947 31.624 50.96C30.9627 50.7253 30.2267 50.544 29.416 50.416C28.6267 50.2667 27.8267 50.1067 27.016 49.936C26.2053 49.744 25.4693 49.4987 24.808 49.2C24.1467 48.88 23.6133 48.4427 23.208 47.888C22.8027 47.3333 22.6 46.5973 22.6 45.68C22.6 44.8907 22.8133 44.1653 23.24 43.504C23.688 42.8427 24.36 42.3093 25.256 41.904C26.152 41.4773 27.2933 41.264 28.68 41.264C29.704 41.264 30.728 41.424 31.752 41.744C32.7973 42.0427 33.6293 42.448 34.248 42.96L33.704 43.792C33.0427 43.2587 32.264 42.864 31.368 42.608C30.4933 42.352 29.5867 42.224 28.648 42.224C26.92 42.224 25.6613 42.5547 24.872 43.216C24.0827 43.8773 23.688 44.688 23.688 45.648C23.688 46.416 23.8907 47.0347 24.296 47.504C24.7013 47.952 25.2347 48.2933 25.896 48.528C26.5573 48.7627 27.2827 48.9547 28.072 49.104C28.8827 49.2533 29.6827 49.4133 30.472 49.584C31.2827 49.7547 32.0187 49.9893 32.68 50.288C33.3413 50.5867 33.8747 51.0027 34.28 51.536C34.6853 52.0693 34.888 52.7947 34.888 53.712C34.888 54.5653 34.6427 55.3333 34.152 56.016C33.6827 56.6773 32.9787 57.1893 32.04 57.552C31.1227 57.9147 29.96 58.096 28.552 58.096ZM38.5028 64.304C37.7561 64.304 37.0628 64.176 36.4228 63.92C35.7828 63.6853 35.2387 63.3227 34.7907 62.832L35.3987 62C35.8468 62.4693 36.3161 62.8107 36.8068 63.024C37.2974 63.2587 37.8628 63.376 38.5028 63.376C39.3134 63.376 40.0281 63.152 40.6468 62.704C41.2654 62.256 41.8414 61.4347 42.3748 60.24L43.5908 57.616L43.7508 57.36L50.9828 41.392H52.1028L43.3988 60.496C42.9721 61.4347 42.5028 62.1813 41.9908 62.736C41.5001 63.312 40.9668 63.7173 40.3908 63.952C39.8148 64.1867 39.1854 64.304 38.5028 64.304ZM43.6228 58.384L35.8788 41.392H37.0308L44.2308 57.296L43.6228 58.384Z" fill="#303030"/>
</g>
<path d="M24.712 57.488L24.3757 58.4297L24.3832 58.4324L24.3907 58.435L24.712 57.488ZM21.992 55.888L21.1403 55.3639L20.7335 56.025L21.273 56.583L21.992 55.888ZM22.504 55.056L23.1715 54.3114L22.2799 53.5121L21.6523 54.5319L22.504 55.056ZM25.032 56.528L25.4034 55.5995L25.4034 55.5995L25.032 56.528ZM32.584 56.208L31.9742 55.4153L31.9644 55.4231L32.584 56.208ZM33.224 51.952L33.949 51.2633L33.949 51.2632L33.224 51.952ZM31.624 50.96L31.9584 50.0176L31.9584 50.0176L31.624 50.96ZM29.416 50.416L29.2301 51.3986L29.245 51.4014L29.26 51.4038L29.416 50.416ZM27.016 49.936L26.7855 50.9091L26.7977 50.912L26.81 50.9145L27.016 49.936ZM24.808 49.2L24.3724 50.1002L24.3844 50.1059L24.3964 50.1114L24.808 49.2ZM23.208 47.888L24.0154 47.298L24.0154 47.298L23.208 47.888ZM23.24 43.504L22.4121 42.9432L22.4058 42.9524L22.3997 42.9619L23.24 43.504ZM25.256 41.904L25.6682 42.8151L25.6771 42.8111L25.6859 42.8069L25.256 41.904ZM31.752 41.744L31.4537 42.6985L31.4655 42.7021L31.4773 42.7055L31.752 41.744ZM34.248 42.96L35.085 43.5072L35.574 42.7593L34.8856 42.1896L34.248 42.96ZM33.704 43.792L33.0762 44.5704L33.9363 45.264L34.541 44.3392L33.704 43.792ZM31.368 42.608L31.0871 43.5678L31.0933 43.5695L31.368 42.608ZM24.872 43.216L25.5142 43.9825L25.5142 43.9825L24.872 43.216ZM24.296 47.504L23.5392 48.1576L23.5467 48.1664L23.5545 48.1749L24.296 47.504ZM25.896 48.528L25.5616 49.4704L25.5616 49.4704L25.896 48.528ZM28.072 49.104L27.8861 50.0866L27.8908 50.0875L28.072 49.104ZM30.472 49.584L30.2607 50.5614L30.266 50.5625L30.472 49.584ZM32.68 50.288L32.2684 51.1994L32.2684 51.1994L32.68 50.288ZM34.152 56.016L33.34 55.4324L33.3365 55.4373L34.152 56.016ZM32.04 57.552L31.6796 56.6192L31.6723 56.622L32.04 57.552ZM28.552 57.096C27.287 57.096 26.1163 56.9085 25.0333 56.541L24.3907 58.435C25.697 58.8782 27.0864 59.096 28.552 59.096V57.096ZM25.0483 56.5463C23.9411 56.1508 23.1872 55.6856 22.711 55.193L21.273 56.583C22.0341 57.3704 23.0936 57.9719 24.3757 58.4297L25.0483 56.5463ZM22.8437 56.4121L23.3557 55.5801L21.6523 54.5319L21.1403 55.3639L22.8437 56.4121ZM21.8365 55.8006C22.5687 56.457 23.5238 57.0018 24.6606 57.4565L25.4034 55.5995C24.4069 55.2009 23.6767 54.7643 23.1715 54.3114L21.8365 55.8006ZM24.6606 57.4565C25.86 57.9362 27.1722 58.168 28.584 58.168V56.168C27.3931 56.168 26.3373 55.9731 25.4034 55.5995L24.6606 57.4565ZM28.584 58.168C30.5062 58.168 32.1229 57.8461 33.2036 56.9929L31.9644 55.4231C31.4237 55.8499 30.3738 56.168 28.584 56.168V58.168ZM33.1937 57.0006C34.2646 56.1769 34.832 55.0555 34.832 53.712H32.832C32.832 54.4165 32.5674 54.9591 31.9743 55.4154L33.1937 57.0006ZM34.832 53.712C34.832 52.7808 34.5748 51.922 33.949 51.2633L32.499 52.6407C32.6838 52.8353 32.832 53.1498 32.832 53.712H34.832ZM33.949 51.2632C33.4163 50.7025 32.7398 50.2948 31.9584 50.0176L31.2896 51.9024C31.8309 52.0945 32.2211 52.3482 32.499 52.6407L33.949 51.2632ZM31.9584 50.0176C31.2304 49.7592 30.4335 49.5643 29.572 49.4282L29.26 51.4038C30.0199 51.5237 30.695 51.6914 31.2896 51.9024L31.9584 50.0176ZM29.6019 49.4334C28.8195 49.2854 28.0262 49.1268 27.222 48.9575L26.81 50.9145C27.6271 51.0866 28.4339 51.2479 29.2301 51.3986L29.6019 49.4334ZM27.2465 48.9629C26.4891 48.7835 25.8148 48.5575 25.2196 48.2886L24.3964 50.1114C25.1238 50.4399 25.9216 50.7045 26.7855 50.9091L27.2465 48.9629ZM25.2436 48.2998C24.7192 48.0461 24.3174 47.7112 24.0154 47.298L22.4006 48.478C22.9093 49.1741 23.5742 49.7139 24.3724 50.1002L25.2436 48.2998ZM24.0154 47.298C23.7712 46.9638 23.6 46.4556 23.6 45.68H21.6C21.6 46.7391 21.8342 47.7029 22.4006 48.478L24.0154 47.298ZM23.6 45.68C23.6 45.0824 23.7582 44.5454 24.0803 44.0461L22.3997 42.9619C21.8685 43.7853 21.6 44.699 21.6 45.68H23.6ZM24.0679 44.0648C24.3908 43.5882 24.9016 43.1619 25.6682 42.8151L24.8438 40.9929C23.8184 41.4568 22.9852 42.0971 22.4121 42.9432L24.0679 44.0648ZM25.6859 42.8069C26.4053 42.4643 27.3867 42.264 28.68 42.264V40.264C27.2 40.264 25.8987 40.4904 24.8261 41.0011L25.6859 42.8069ZM28.68 42.264C29.5981 42.264 30.5216 42.4072 31.4537 42.6985L32.0503 40.7895C30.9344 40.4408 29.8099 40.264 28.68 40.264V42.264ZM31.4773 42.7055C32.4341 42.9789 33.1288 43.3318 33.6104 43.7304L34.8856 42.1896C34.1299 41.5642 33.1606 41.1064 32.0267 40.7825L31.4773 42.7055ZM33.411 42.4127L32.867 43.2447L34.541 44.3392L35.085 43.5072L33.411 42.4127ZM34.3318 43.0136C33.5565 42.3884 32.6549 41.9357 31.6427 41.6465L31.0933 43.5695C31.8731 43.7923 32.5288 44.129 33.0762 44.5704L34.3318 43.0136ZM31.6489 41.6483C30.6803 41.3648 29.6789 41.224 28.648 41.224V43.224C29.4945 43.224 30.3064 43.3392 31.0871 43.5677L31.6489 41.6483ZM28.648 41.224C26.8316 41.224 25.2862 41.5644 24.2298 42.4495L25.5142 43.9825C26.0365 43.545 27.0084 43.224 28.648 43.224V41.224ZM24.2298 42.4495C23.2324 43.2851 22.688 44.3685 22.688 45.648H24.688C24.688 45.0075 24.9329 44.4696 25.5142 43.9825L24.2298 42.4495ZM22.688 45.648C22.688 46.5967 22.9421 47.4663 23.5392 48.1576L25.0528 46.8504C24.8392 46.603 24.688 46.2353 24.688 45.648H22.688ZM23.5545 48.1749C24.0877 48.7642 24.7695 49.1894 25.5616 49.4704L26.2304 47.5856C25.6998 47.3973 25.315 47.1398 25.0375 46.8331L23.5545 48.1749ZM25.5616 49.4704C26.2777 49.7245 27.0534 49.929 27.8861 50.0866L28.2579 48.1214C27.5119 47.9803 26.837 47.8008 26.2304 47.5856L25.5616 49.4704ZM27.8908 50.0875C28.6916 50.235 29.4816 50.393 30.2607 50.5614L30.6833 48.6066C29.8838 48.4337 29.0737 48.2717 28.2532 48.1205L27.8908 50.0875ZM30.266 50.5625C31.0157 50.7204 31.6815 50.9343 32.2684 51.1994L33.0916 49.3766C32.3559 49.0444 31.5497 48.789 30.678 48.6054L30.266 50.5625ZM32.2684 51.1994C32.791 51.4354 33.1875 51.7511 33.4838 52.1411L35.0762 50.9309C34.5619 50.2542 33.8916 49.7379 33.0916 49.3766L32.2684 51.1994ZM33.4838 52.1411C33.7158 52.4462 33.888 52.9337 33.888 53.712H35.888C35.888 52.6557 35.6549 51.6924 35.0762 50.9309L33.4838 52.1411ZM33.888 53.712C33.888 54.3593 33.7065 54.9225 33.34 55.4324L34.964 56.5996C35.5789 55.7442 35.888 54.7714 35.888 53.712H33.888ZM33.3365 55.4373C33.0055 55.9037 32.4794 56.3102 31.6796 56.6192L32.4004 58.4848C33.478 58.0685 34.3599 57.451 34.9675 56.5947L33.3365 55.4373ZM31.6723 56.622C30.9107 56.9232 29.8836 57.096 28.552 57.096V59.096C30.0364 59.096 31.3347 58.9062 32.4077 58.482L31.6723 56.622ZM36.4228 63.92L36.7941 62.9915L36.7806 62.9861L36.767 62.9811L36.4228 63.92ZM34.7907 62.832L33.9834 62.242L33.5008 62.9023L34.0523 63.5063L34.7907 62.832ZM35.3987 62L36.1221 61.3095L35.2967 60.4448L34.5914 61.41L35.3987 62ZM36.8068 63.024L37.2382 62.1219L37.222 62.1141L37.2055 62.1069L36.8068 63.024ZM40.6468 62.704L40.0602 61.8941L40.0602 61.8941L40.6468 62.704ZM42.3748 60.24L41.4673 59.8195L41.4616 59.8323L42.3748 60.24ZM43.5908 57.616L42.7428 57.086L42.7097 57.1389L42.6834 57.1955L43.5908 57.616ZM43.7508 57.36L44.5987 57.89L44.6341 57.8334L44.6617 57.7726L43.7508 57.36ZM50.9828 41.392V40.392H50.3379L50.0718 40.9794L50.9828 41.392ZM52.1028 41.392L53.0128 41.8066L53.6573 40.392H52.1028V41.392ZM43.3988 60.496L42.4887 60.0814L42.4884 60.0822L43.3988 60.496ZM41.9908 62.736L41.2559 62.0577L41.2424 62.0724L41.2295 62.0875L41.9908 62.736ZM40.3908 63.952L40.0135 63.0259L40.0135 63.0259L40.3908 63.952ZM43.6228 58.384L42.7128 58.7987L43.532 60.5963L44.4957 58.8718L43.6228 58.384ZM35.8788 41.392V40.392H34.3241L34.9688 41.8067L35.8788 41.392ZM37.0308 41.392L37.9417 40.9796L37.6757 40.392H37.0308V41.392ZM44.2308 57.296L45.1037 57.7838L45.3499 57.3433L45.1417 56.8836L44.2308 57.296ZM38.5028 63.304C37.8726 63.304 37.3065 63.1965 36.7941 62.9915L36.0514 64.8485C36.819 65.1555 37.6395 65.304 38.5028 65.304V63.304ZM36.767 62.9811C36.2737 62.8002 35.8661 62.5267 35.5292 62.1577L34.0523 63.5063C34.6114 64.1187 35.2918 64.5704 36.0785 64.8589L36.767 62.9811ZM35.5981 63.422L36.2061 62.59L34.5914 61.41L33.9834 62.242L35.5981 63.422ZM34.6754 62.6905C35.1963 63.2362 35.7721 63.6646 36.408 63.9411L37.2055 62.1069C36.8601 61.9568 36.4972 61.7025 36.1221 61.3095L34.6754 62.6905ZM36.3753 63.9261C37.0225 64.2356 37.7396 64.376 38.5028 64.376V62.376C37.9859 62.376 37.5724 62.2817 37.2382 62.1219L36.3753 63.9261ZM38.5028 64.376C39.5104 64.376 40.4332 64.0933 41.2333 63.5139L40.0602 61.8941C39.623 62.2107 39.1165 62.376 38.5028 62.376V64.376ZM41.2333 63.5139C42.0626 62.9134 42.7277 61.9025 43.2879 60.6477L41.4616 59.8323C40.9552 60.9668 40.4683 61.5986 40.0602 61.8941L41.2333 63.5139ZM43.2821 60.6605L44.4981 58.0365L42.6834 57.1955L41.4674 59.8195L43.2821 60.6605ZM44.4387 58.146L44.5987 57.89L42.9028 56.83L42.7428 57.086L44.4387 58.146ZM44.6617 57.7726L51.8937 41.8046L50.0718 40.9794L42.8398 56.9474L44.6617 57.7726ZM50.9828 42.392H52.1028V40.392H50.9828V42.392ZM51.1928 40.9774L42.4887 60.0814L44.3088 60.9106L53.0128 41.8066L51.1928 40.9774ZM42.4884 60.0822C42.0908 60.9568 41.6747 61.6041 41.2559 62.0577L42.7256 63.4143C43.3308 62.7586 43.8533 61.9125 44.3091 60.9098L42.4884 60.0822ZM41.2295 62.0875C40.8205 62.5677 40.4123 62.8634 40.0135 63.0259L40.768 64.8781C41.5212 64.5712 42.1797 64.0563 42.752 63.3845L41.2295 62.0875ZM40.0135 63.0259C39.5685 63.2072 39.0687 63.304 38.5028 63.304V65.304C39.3021 65.304 40.061 65.1661 40.768 64.8781L40.0135 63.0259ZM44.5327 57.9693L36.7887 40.9773L34.9688 41.8067L42.7128 58.7987L44.5327 57.9693ZM35.8788 42.392H37.0308V40.392H35.8788V42.392ZM36.1198 41.8044L43.3198 57.7084L45.1417 56.8836L37.9417 40.9796L36.1198 41.8044ZM43.3578 56.8082L42.7498 57.8962L44.4957 58.8718L45.1037 57.7838L43.3578 56.8082Z" fill="#303030"/>
<defs>
<filter id="filter0_i_301_2" x="52.984" y="10.256" width="61.3395" height="27.84" filterUnits="userSpaceOnUse" color-interpolation-filters="sRGB">
<feFlood flood-opacity="0" result="BackgroundImageFix"/>
<feBlend mode="normal" in="SourceGraphic" in2="BackgroundImageFix" result="shape"/>
<feColorMatrix in="SourceAlpha" type="matrix" values="0 0 0 0 0 0 0 0 0 0 0 0 0 0 0 0 0 0 127 0" result="hardAlpha"/>
<feOffset dy="4"/>
<feGaussianBlur stdDeviation="2"/>
<feComposite in2="hardAlpha" operator="arithmetic" k2="-1" k3="1"/>
<feColorMatrix type="matrix" values="0 0 0 0 0 0 0 0 0 0 0 0 0 0 0 0 0 0 0.25 0"/>
<feBlend mode="normal" in2="shape" result="effect1_innerShadow_301_2"/>
</filter>
<filter id="filter1_i_301_2" x="21.992" y="41.264" width="30.1107" height="27.04" filterUnits="userSpaceOnUse" color-interpolation-filters="sRGB">
<feFlood flood-opacity="0" result="BackgroundImageFix"/>
<feBlend mode="normal" in="SourceGraphic" in2="BackgroundImageFix" result="shape"/>
<feColorMatrix in="SourceAlpha" type="matrix" values="0 0 0 0 0 0 0 0 0 0 0 0 0 0 0 0 0 0 127 0" result="hardAlpha"/>
<feOffset dy="4"/>
<feGaussianBlur stdDeviation="2"/>
<feComposite in2="hardAlpha" operator="arithmetic" k2="-1" k3="1"/>
<feColorMatrix type="matrix" values="0 0 0 0 0 0 0 0 0 0 0 0 0 0 0 0 0 0 0.25 0"/>
<feBlend mode="normal" in2="shape" result="effect1_innerShadow_301_2"/>
</filter>
</defs>
</svg>
